<svg width="20" height="20" viewBox="0 0 20 20" fill="none" xmlns="http://www.w3.org/2000/svg">
<path d="M9.82193 17.7239L10.0458 17.5L10.2696 17.7239C10.4935 17.9851 10.9785 18.3209 11.7993 18.5448C11.762 18.3955 11.6874 18.2463 11.5755 18.1343L10.5308 17.2388C10.2696 17.0149 9.89655 17.0149 9.63539 17.2388L8.51612 18.209C8.4042 18.2836 8.32958 18.3955 8.29227 18.5448C9.11307 18.3209 9.56077 17.9851 9.82193 17.7239Z" fill="#F1F3F3"/>
<path d="M10.0458 18.4701C9.71002 18.7687 9.18769 19.0672 8.44151 19.2537L8.66537 19.6642C8.77729 19.8881 9.00115 20 9.26231 20H10.792C11.0158 20 11.2397 19.8881 11.3889 19.6642L11.6501 19.2537C10.8666 19.0672 10.3816 18.7687 10.0458 18.4701Z" fill="#F1F3F3"/>
<path d="M8.32959 5.85821C8.06843 5.78358 7.88188 5.59701 7.73265 5.37313C7.62072 5.14925 7.58341 4.88806 7.65803 4.62686L7.76995 4.32836C7.35956 3.8806 7.1357 2.94776 7.02378 2.42537C6.94916 2.16418 6.76261 1.9403 6.50145 1.90298C6.46414 1.90298 6.42683 1.90298 6.38953 1.90298C6.12836 1.90298 5.8672 2.08955 5.79258 2.35074C5.60604 2.94776 5.49411 3.6194 5.49411 4.1791C5.49411 4.81343 5.64335 5.33582 5.90451 5.70895C5.64335 5.97015 5.38219 6.23134 5.23295 6.52985C5.0091 6.23134 4.67332 5.89552 4.11368 5.67164C3.47943 5.37313 2.73325 5.33582 1.91246 5.59701C1.2409 5.78358 0.681265 6.1194 0.308176 6.34328C0.270867 6.3806 0.233558 6.3806 0.158941 6.41791C0.047014 6.49254 -0.0276037 6.60448 0.00970515 6.75373C0.00970515 6.75373 0.121632 7.20149 0.457412 7.72388C0.793192 8.17164 1.39013 8.76865 2.39747 9.02985C2.58402 9.06716 2.80787 9.10448 2.99442 9.10448C3.7779 9.10448 4.44946 8.76865 4.85986 8.43283C4.89717 8.99254 4.93448 9.55224 5.0091 10.1493L5.04641 10.1119C5.27026 9.88806 5.53142 9.7388 5.79258 9.62686C5.71797 9.02985 5.71797 8.43283 5.71797 7.83582C5.71797 7.20149 6.05375 6.71642 6.46414 6.3806C6.65069 6.23134 6.87454 6.08209 7.06109 5.97015C7.43417 6.19403 7.76995 6.64179 8.06843 7.05224C8.3669 7.46268 8.62806 7.83582 9.00115 8.09701C9.15038 8.24627 9.41155 8.39552 9.93387 8.39552C9.97118 8.39552 10.0085 8.39552 10.0458 8.39552C10.0831 8.39552 10.1204 8.39552 10.1577 8.39552C10.68 8.39552 10.9412 8.20895 11.0904 8.09701C11.4635 7.87313 11.7247 7.5 11.9859 7.12686L8.32959 5.85821ZM6.72531 5.11194C6.61338 5.18657 6.50145 5.26119 6.38953 5.33582C6.20298 5.07463 6.12836 4.70149 6.09105 4.25373C6.05374 3.80597 6.12836 3.32089 6.24029 2.83582C6.2776 2.72388 6.46414 2.72388 6.46414 2.83582C6.688 3.76866 6.98647 4.4403 7.39687 4.81343C7.17301 4.88806 6.94916 5 6.72531 5.11194Z" fill="#F1F3F3"/>
<path d="M7.09839 14.8134C6.98646 14.5149 6.87454 14.2164 6.76261 13.8806C6.7253 13.8806 6.7253 13.8806 6.68799 13.8806C6.38952 13.8806 6.09105 13.806 5.79258 13.694C5.94182 14.2164 6.12836 14.7388 6.3149 15.2239C6.57607 15.1119 6.83723 14.9627 7.09839 14.8134Z" fill="#F1F3F3"/>
<path d="M19.858 6.3806C19.8207 6.34328 19.7834 6.34328 19.7088 6.30597C19.3357 6.08209 18.7388 5.74627 18.1045 5.5597C17.321 5.33582 16.5749 5.33582 15.9406 5.63433C15.7914 5.70895 15.6421 5.78358 15.5302 5.85821L15.381 6.26866L15.1571 6.9403C15.0079 7.35075 14.6348 7.64925 14.2244 7.64925C14.1125 7.64925 14.0379 7.64925 13.9259 7.61194L13.4409 7.46268C13.0678 7.68657 12.6947 8.02239 12.5082 8.13433C11.9859 8.54478 11.5755 9.10448 11.3143 9.77612C10.9785 10.709 10.7547 11.9403 10.7174 13.3955C10.7174 13.5821 10.7174 13.7313 10.7174 13.9179C10.792 13.9179 10.8666 13.9179 10.9412 13.9179C11.3143 13.9925 11.6501 14.2164 11.762 14.5149H11.7993C12.5455 14.5149 13.1424 14.8507 13.7021 15.2239C13.9259 14.6269 14.1498 13.9925 14.299 13.4701C14.8213 11.6418 15.0825 9.96268 15.1198 8.35821C15.5675 8.69403 16.2018 9.02985 16.9853 9.02985C17.1718 9.02985 17.3957 8.99254 17.5822 8.95522C18.5895 8.69403 19.1865 8.09701 19.5223 7.64925C19.858 7.16418 19.97 6.71642 19.97 6.6791C20.0446 6.56716 19.97 6.45522 19.858 6.3806Z" fill="#F1F3F3"/>
<path d="M5.94182 2.46268L6.76262 2.35074L7.43418 4.4403L7.58341 5.14925L6.38953 5.70895L5.8672 5L5.94182 2.46268Z" fill="#F1F3F3"/>
<path d="M10.0458 15.0373C10.307 14.8881 10.7174 14.6642 11.3143 14.5896C11.2024 14.4776 11.0531 14.403 10.9039 14.3657C10.7547 14.3284 10.6054 14.3657 10.4562 14.403C10.2323 14.4776 10.0085 14.4776 9.78463 14.403C9.6727 14.3657 9.59808 14.3284 9.48616 14.3284C9.44885 14.3284 9.41154 14.3284 9.33692 14.3284C9.15038 14.3657 9.00114 14.4403 8.88922 14.5522C9.41154 14.7015 9.78463 14.8881 10.0458 15.0373Z" fill="#F1F3F3"/>
<path d="M6.12836 2.87313C6.12836 2.87313 6.16567 4.55224 6.94916 5C6.94916 5 5.34487 5.14925 6.12836 2.87313Z" fill="white"/>
<path d="M15.6048 15.8582C15.6048 15.8582 15.1198 16.6418 14.5229 16.6418C14.299 16.6418 13.9259 16.3806 13.5901 16.0821C13.0678 15.6716 12.3963 15.1492 11.6128 15.1492C10.8293 15.1492 10.307 15.4104 10.0458 15.6716C9.78463 15.4478 9.2623 15.1492 8.47882 15.1492C7.69533 15.1492 7.02377 15.6716 6.50145 16.0821C6.12836 16.3806 5.79258 16.6418 5.56872 16.6418C4.97178 16.6418 4.48677 15.8582 4.48677 15.8582C4.37484 15.709 4.15099 15.7836 4.15099 15.9701C4.15099 16.0075 4.1883 16.6791 4.59869 17.3507C5.00909 17.9851 5.79258 18.7313 7.43417 18.7313C8.92653 18.7313 9.71001 18.1716 10.0458 17.8358C10.3816 18.209 11.1651 18.7313 12.6574 18.7313C14.2617 18.7313 15.0825 17.9851 15.4929 17.3507C15.9033 16.6791 15.9406 16.0075 15.9406 15.9701C15.9406 15.7836 15.6794 15.709 15.6048 15.8582Z" fill="#F1F3F3"/>
<path d="M8.47882 4.14179L14.7467 6.1194L14.5975 6.64179C14.5229 6.90298 14.2244 7.05224 13.9632 6.97761L8.66537 5.29851C8.40421 5.22388 8.25497 4.92537 8.32959 4.66418L8.47882 4.14179Z" fill="#F1F3F3"/>
<path d="M12.4336 11.306H13.8513C13.8513 11.8284 13.3663 12.2388 12.8067 12.2388H11.9485L12.0232 11.6418C12.0232 11.4552 12.2097 11.306 12.4336 11.306Z" fill="white"/>
<path d="M13.9259 6.15672L9.07577 4.62687L9.93387 0C10.792 0.11194 11.8739 0.298507 13.0305 0.671642C14.1871 1.04478 15.1198 1.49254 15.9033 1.86567C15.2317 3.28358 14.5975 4.73881 13.9259 6.15672Z" fill="#F1F3F3"/>
<path d="M13.6648 5.70896L9.6727 4.40298L9.85925 3.47015C10.3816 3.73134 11.0158 4.02985 11.7993 4.29104C12.6201 4.55224 13.4036 4.70149 14.0378 4.77612C13.8886 5.11194 13.7767 5.41045 13.6648 5.70896Z" fill="white"/>
<path d="M5.49411 10.4104C4.82255 11.0821 4.82255 12.2015 5.49411 12.8731C6.16567 13.5448 7.28494 13.5448 7.9565 12.8731C8.62806 12.2015 8.62806 11.0821 7.9565 10.4104C7.28494 9.70149 6.16567 9.70149 5.49411 10.4104Z" fill="#F1F3F3"/>
<path d="M7.1357 10.4104C6.46414 10.1866 5.71796 10.5224 5.4568 11.2313C5.56872 11.0821 5.82989 10.8209 6.20297 10.6716C6.61337 10.4478 6.94915 10.4104 7.1357 10.4104Z" fill="white"/>
<path d="M5.30757 15.709L5.12102 15.8955V13.1716H5.30757V15.709Z" fill="#F1F3F3"/>
<path d="M5.0091 12.6119C4.89717 12.7239 4.89717 12.9104 5.0091 13.0224C5.12102 13.1343 5.30757 13.1343 5.41949 13.0224C5.53142 12.9104 5.53142 12.7239 5.41949 12.6119C5.30757 12.5 5.12102 12.5 5.0091 12.6119Z" fill="white"/>
<path d="M9.71001 16.8284C9.71001 16.8284 8.4042 18.4328 5.30756 17.5C5.30756 17.5 8.29227 19.3657 9.71001 16.8284Z" fill="white"/>
<path d="M4.82254 7.64925C4.82254 7.64925 3.59135 6.1194 0.643948 7.01492C0.606639 6.97761 3.44212 5.22388 4.82254 7.64925Z" fill="white"/>
<path d="M15.2317 7.64925C15.2317 7.64925 16.4629 6.1194 19.4103 7.01492C19.4103 6.97761 16.5749 5.22388 15.2317 7.64925Z" fill="white"/>
<path d="M11.5008 10.8582C11.5008 10.8582 12.4709 9.85075 14.5229 10.597C14.5229 10.6343 12.5828 9.21642 11.5008 10.8582Z" fill="white"/>
<path d="M15.2317 2.01492C15.2317 2.01492 13.5155 2.20149 10.2696 0.447758C10.2696 0.410445 12.5828 2.57462 15.2317 2.01492Z" fill="white"/>
<path d="M10.307 16.8284C10.307 16.8284 11.6128 18.4328 14.7094 17.5C14.7094 17.5 11.7247 19.3657 10.307 16.8284Z" fill="white"/>
<path d="M9.41154 16.194C9.41154 16.194 8.10573 15.7463 7.02377 16.7537C6.98646 16.7537 7.76995 15.2239 9.41154 16.194Z" fill="white"/>
<path d="M10.6054 16.194C10.6054 16.194 11.9112 15.7463 12.9932 16.7537C13.0305 16.7537 12.247 15.2239 10.6054 16.194Z" fill="white"/>
</svg>
