<svg width="131" height="23" viewBox="0 0 131 23" fill="none" xmlns="http://www.w3.org/2000/svg">
<path d="M13.4663 1.64469L15.487 5.68609C15.7625 6.24867 16.4973 6.78829 17.1173 6.89162L20.7799 7.50013C23.122 7.89049 23.6731 9.58967 21.9854 11.2659L19.138 14.1133C18.6558 14.5955 18.3918 15.5255 18.541 16.1914L19.3562 19.7161C19.9991 22.5061 18.518 23.5853 16.0496 22.1272L12.6167 20.095C11.9967 19.7276 10.9749 19.7276 10.3434 20.095L6.91049 22.1272C4.4535 23.5853 2.96094 22.4946 3.60389 19.7161L4.41906 16.1914C4.56831 15.5255 4.30424 14.5955 3.82203 14.1133L0.974681 11.2659C-0.701582 9.58967 -0.161963 7.89049 2.18021 7.50013L5.84273 6.89162C6.45124 6.78829 7.18604 6.24867 7.46159 5.68609L9.4823 1.64469C10.5845 -0.54823 12.3756 -0.54823 13.4663 1.64469Z" fill="#EB0444"/>
<path d="M40.3103 1.64469L42.331 5.68609C42.6066 6.24867 43.3414 6.78829 43.9614 6.89162L47.6239 7.50013C49.9661 7.89049 50.5172 9.58967 48.8294 11.2659L45.9821 14.1133C45.4999 14.5955 45.2358 15.5255 45.3851 16.1914L46.2002 19.7161C46.8432 22.5061 45.3621 23.5853 42.8936 22.1272L39.4607 20.095C38.8407 19.7276 37.8189 19.7276 37.1874 20.095L33.7545 22.1272C31.2976 23.5853 29.805 22.4946 30.4479 19.7161L31.2631 16.1914C31.4124 15.5255 31.1483 14.5955 30.6661 14.1133L27.8187 11.2659C26.1425 9.58967 26.6821 7.89049 29.0243 7.50013L32.6868 6.89162C33.2953 6.78829 34.0301 6.24867 34.3056 5.68609L36.3264 1.64469C37.4286 -0.54823 39.2196 -0.54823 40.3103 1.64469Z" fill="#EB0444"/>
<path d="M67.1544 1.64469L69.1751 5.68609C69.4507 6.24867 70.1855 6.78829 70.8054 6.89162L74.468 7.50013C76.8101 7.89049 77.3612 9.58967 75.6735 11.2659L72.8261 14.1133C72.3439 14.5955 72.0799 15.5255 72.2291 16.1914L73.0443 19.7161C73.6872 22.5061 72.2062 23.5853 69.7377 22.1272L66.3048 20.095C65.6848 19.7276 64.663 19.7276 64.0315 20.095L60.5986 22.1272C58.1416 23.5853 56.649 22.4946 57.292 19.7161L58.1072 16.1914C58.2564 15.5255 57.9924 14.5955 57.5101 14.1133L54.6628 11.2659C52.9865 9.58967 53.5261 7.89049 55.8683 7.50013L59.5308 6.89162C60.1393 6.78829 60.8741 6.24867 61.1497 5.68609L63.1704 1.64469C64.2726 -0.54823 66.0637 -0.54823 67.1544 1.64469Z" fill="#EB0444"/>
<path d="M93.9985 1.64469L96.0192 5.68609C96.2947 6.24867 97.0295 6.78829 97.6495 6.89162L101.312 7.50013C103.654 7.89049 104.205 9.58967 102.518 11.2659L99.6702 14.1133C99.188 14.5955 98.9239 15.5255 99.0732 16.1914L99.8884 19.7161C100.531 22.5061 99.0502 23.5853 96.5818 22.1272L93.1489 20.095C92.5289 19.7276 91.5071 19.7276 90.8756 20.095L87.4427 22.1272C84.9857 23.5853 83.4931 22.4946 84.1361 19.7161L84.9513 16.1914C85.1005 15.5255 84.8364 14.5955 84.3542 14.1133L81.5069 11.2659C79.8306 9.58967 80.3702 7.89049 82.7124 7.50013L86.3749 6.89162C86.9834 6.78829 87.7182 6.24867 87.9938 5.68609L90.0145 1.64469C91.1167 -0.54823 92.9078 -0.54823 93.9985 1.64469Z" fill="#EB0444"/>
<path d="M120.843 1.64469L122.863 5.68609C123.139 6.24867 123.874 6.78829 124.494 6.89162L128.156 7.50013C130.498 7.89049 131.049 9.58967 129.362 11.2659L126.514 14.1133C126.032 14.5955 125.768 15.5255 125.917 16.1914L126.732 19.7161C127.375 22.5061 125.894 23.5853 123.426 22.1272L119.993 20.095C119.373 19.7276 118.351 19.7276 117.72 20.095L114.287 22.1272C111.83 23.5853 110.337 22.4946 110.98 19.7161L111.795 16.1914C111.945 15.5255 111.68 14.5955 111.198 14.1133L108.351 11.2659C106.675 9.58967 107.214 7.89049 109.556 7.50013L113.219 6.89162C113.827 6.78829 114.562 6.24867 114.838 5.68609L116.859 1.64469C117.961 -0.54823 119.752 -0.54823 120.843 1.64469Z" fill="#EB0444"/>
</svg>
