<svg width="106" height="30" viewBox="0 0 106 30" fill="none" xmlns="http://www.w3.org/2000/svg">
<path d="M24.7857 27.5248C24.6296 27.5389 24.4725 27.5172 24.3256 27.4614C24.1788 27.4057 24.046 27.3172 23.9368 27.2025C23.8277 27.0877 23.745 26.9496 23.6947 26.7982C23.6443 26.6467 23.6277 26.4857 23.646 26.3268V23.0065C23.6417 22.8515 23.668 22.6972 23.7232 22.5528C23.7783 22.4083 23.8613 22.2766 23.9672 22.1654C24.073 22.0543 24.1997 21.9659 24.3396 21.9056C24.4795 21.8452 24.6298 21.8141 24.7817 21.8141C24.9335 21.8141 25.0839 21.8452 25.2238 21.9056C25.3637 21.9659 25.4903 22.0543 25.5962 22.1654C25.7021 22.2766 25.785 22.4083 25.8402 22.5528C25.8954 22.6972 25.9216 22.8515 25.9174 23.0065V23.6409H25.1966V23.0518C25.1966 22.6581 25.0542 22.4782 24.7861 22.4782C24.5181 22.4782 24.3672 22.6594 24.3672 23.0518V26.2865C24.3672 26.6803 24.5181 26.8601 24.7861 26.8601C25.0542 26.8601 25.1966 26.6789 25.1966 26.2865V25.6975H25.9174V26.3318C25.9357 26.4898 25.9194 26.6499 25.8696 26.8006C25.8198 26.9513 25.7377 27.0888 25.6293 27.203C25.5209 27.3173 25.389 27.4054 25.2431 27.4611C25.0971 27.5168 24.9409 27.5385 24.7857 27.5248Z" fill="white"/>
<path d="M29.6387 27.4563V24.2217C29.6387 23.8279 29.4878 23.6399 29.2277 23.6399C28.9765 23.6399 28.8172 23.8279 28.8172 24.2217V27.4563H28.1049V21.5348H28.8172V23.3232C28.874 23.2181 28.9576 23.1307 29.0592 23.0704C29.1609 23.0101 29.2766 22.979 29.3942 22.9807C30.0732 22.9807 30.3497 23.4084 30.3497 24.1786V27.4563H29.6387Z" fill="white"/>
<path d="M32.6071 22.3989V21.5348H33.3172V22.3989H32.6071ZM32.6071 27.4563V23.0495H33.3172V27.4563H32.6071Z" fill="white"/>
<path d="M36.6202 27.5254C36.4665 27.5369 36.3122 27.5132 36.1687 27.4559C36.0251 27.3986 35.896 27.3093 35.7907 27.1944C35.6854 27.0795 35.6066 26.942 35.5601 26.7919C35.5137 26.6419 35.5007 26.4832 35.5222 26.3273V24.1877C35.5222 23.426 35.9079 22.981 36.6202 22.981C37.3325 22.981 37.7182 23.4174 37.7182 24.1791V24.4786H37.0059V24.2217C37.0059 23.8451 36.8887 23.6399 36.6202 23.6399C36.3517 23.6399 36.2345 23.8537 36.2345 24.2217V26.2843C36.2345 26.6608 36.3521 26.8661 36.6202 26.8661C36.8883 26.8661 37.0059 26.6608 37.0059 26.2843V26.0378H37.7182V26.3287C37.7394 26.4844 37.7263 26.643 37.6798 26.7929C37.6332 26.9427 37.5544 27.0801 37.4491 27.1948C37.3439 27.3095 37.2148 27.3988 37.0714 27.456C36.9279 27.5132 36.7738 27.5369 36.6202 27.5254Z" fill="white"/>
<path d="M41.5571 27.4564L40.8195 25.2743L40.5599 25.6939V27.4564H39.8476V21.5348H40.5599V24.7609H40.5768C40.6317 24.5975 40.7018 24.4399 40.7862 24.2901L41.5491 23.0495H42.312L41.3312 24.6585L42.3369 27.4569L41.5571 27.4564Z" fill="white"/>
<path d="M45.2799 27.5245C45.1229 27.5393 44.9647 27.5184 44.8166 27.4631C44.6685 27.4079 44.5343 27.3198 44.4236 27.2052C44.3129 27.0906 44.2286 26.9523 44.1766 26.8004C44.1246 26.6484 44.1062 26.4866 44.1229 26.3265V24.1793C44.1154 24.02 44.1397 23.8608 44.1942 23.7114C44.2488 23.562 44.3324 23.4254 44.4402 23.31C44.548 23.1945 44.6776 23.1026 44.8211 23.0398C44.9647 22.977 45.1193 22.9447 45.2755 22.9447C45.4317 22.9447 45.5862 22.977 45.7298 23.0398C45.8734 23.1026 46.003 23.1945 46.1108 23.31C46.2185 23.4254 46.3022 23.562 46.3567 23.7114C46.4113 23.8608 46.4355 24.02 46.428 24.1793V25.4543H44.8352V26.2844C44.8352 26.6782 45.0128 26.8662 45.279 26.8662C45.5453 26.8662 45.7148 26.6782 45.7148 26.2844V26.037H46.4271V26.3279C46.4442 26.4871 46.4265 26.6482 46.3753 26.7996C46.324 26.9509 46.2405 27.0888 46.1308 27.2033C46.021 27.3177 45.8878 27.4059 45.7407 27.4615C45.5936 27.517 45.4362 27.5386 45.2799 27.5245ZM45.7073 24.2214C45.7073 23.8277 45.5395 23.6397 45.2715 23.6397C45.0034 23.6397 44.8357 23.8277 44.8357 24.2214V24.8721H45.7073V24.2214Z" fill="white"/>
<path d="M50.1562 27.4559V24.2213C50.1562 23.8275 50.0053 23.6395 49.7452 23.6395C49.494 23.6395 49.3347 23.8275 49.3347 24.2213V27.4559H48.6206V23.0491H49.3076V23.321C49.3692 23.2142 49.4576 23.1261 49.5637 23.0658C49.6699 23.0056 49.7898 22.9754 49.9112 22.9784C50.5902 22.9784 50.8667 23.4062 50.8667 24.1764V27.4541L50.1562 27.4559Z" fill="white"/>
<path d="M56.9373 22.5529V24.35H57.8843V25.0346H56.9373V27.4571H56.2166V21.8768H58.0104V22.5529H56.9373Z" fill="white"/>
<path d="M60.0303 22.3989V21.5348H60.7426V22.3989H60.0303ZM60.0303 27.4563V23.0495H60.7426V27.4563H60.0303Z" fill="white"/>
<path d="M64.5567 27.4559V24.2213C64.5567 23.8276 64.4058 23.6395 64.1457 23.6395C63.8945 23.6395 63.7352 23.8276 63.7352 24.2213V27.4559H63.0229V23.0491H63.7103V23.321C63.7718 23.2141 63.8602 23.126 63.9664 23.0657C64.0725 23.0055 64.1925 22.9754 64.3139 22.9785C64.9929 22.9785 65.2694 23.4062 65.2694 24.1764V27.4541L64.5567 27.4559Z" fill="white"/>
<path d="M68.638 29.1253C68.4815 29.1396 68.3239 29.1182 68.1765 29.0626C68.0291 29.0071 67.8956 28.9188 67.7857 28.8042C67.6758 28.6895 67.5922 28.5514 67.541 28.3997C67.4898 28.2481 67.4722 28.0867 67.4895 27.9273V27.8072H68.2022V27.8842C68.2022 28.278 68.37 28.466 68.638 28.466C68.9061 28.466 69.0738 28.278 69.0738 27.8842V27.1828C69.0122 27.2895 68.9238 27.3775 68.8177 27.4377C68.7115 27.4978 68.5916 27.5279 68.4703 27.5249C67.7913 27.5249 67.4731 27.0971 67.4731 26.3268V24.18C67.4731 23.4096 67.7913 22.9819 68.4703 22.9819C68.5975 22.9753 68.724 23.0056 68.8352 23.0691C68.9464 23.1327 69.0377 23.227 69.0987 23.3412V23.0503H69.7861V27.9273C69.8034 28.0867 69.7859 28.248 69.7347 28.3996C69.6835 28.5512 69.5999 28.6894 69.4901 28.804C69.3802 28.9186 69.2468 29.0069 69.0994 29.0625C68.9521 29.1181 68.7945 29.1395 68.638 29.1253ZM69.0738 24.2216C69.0738 23.8279 68.8963 23.6398 68.63 23.6398C68.3638 23.6398 68.1863 23.8279 68.1863 24.2216V26.2842C68.1863 26.678 68.3638 26.8661 68.63 26.8661C68.8963 26.8661 69.0738 26.678 69.0738 26.2842V24.2216Z" fill="white"/>
<path d="M73.1485 27.5245C72.9915 27.5393 72.8333 27.5184 72.6852 27.4631C72.5371 27.4079 72.4029 27.3198 72.2922 27.2052C72.1815 27.0906 72.0971 26.9523 72.0451 26.8004C71.9931 26.6484 71.9748 26.4866 71.9915 26.3265V24.1793C71.984 24.02 72.0083 23.8608 72.0628 23.7114C72.1173 23.562 72.201 23.4254 72.3088 23.31C72.4165 23.1945 72.5461 23.1026 72.6897 23.0398C72.8333 22.977 72.9879 22.9447 73.1441 22.9447C73.3002 22.9447 73.4548 22.977 73.5984 23.0398C73.742 23.1026 73.8716 23.1945 73.9793 23.31C74.0871 23.4254 74.1708 23.562 74.2253 23.7114C74.2798 23.8608 74.3041 24.02 74.2966 24.1793V25.4543H72.7038V26.2844C72.7038 26.6782 72.8813 26.8662 73.1476 26.8662C73.4139 26.8662 73.5834 26.6782 73.5834 26.2844V26.037H74.2957V26.3279C74.3128 26.4871 74.2951 26.6482 74.2438 26.7996C74.1926 26.9509 74.1091 27.0888 73.9993 27.2033C73.8896 27.3177 73.7564 27.4059 73.6092 27.4615C73.4621 27.517 73.3048 27.5386 73.1485 27.5245ZM73.5759 24.2214C73.5759 23.8277 73.4081 23.6397 73.1401 23.6397C72.872 23.6397 72.7043 23.8277 72.7043 24.2214V24.8721H73.5759V24.2214Z" fill="white"/>
<path d="M77.9917 24.8545V24.2201C77.9917 23.8263 77.8585 23.6383 77.5976 23.6383C77.3464 23.6383 77.2039 23.8263 77.2039 24.2201V27.455H76.4916V23.0478H77.1791V23.3197C77.2387 23.213 77.3255 23.1249 77.4303 23.0645C77.5351 23.0042 77.6539 22.974 77.7742 22.9771C78.4532 22.9771 78.7062 23.4049 78.7062 24.1752V24.8513L77.9917 24.8545Z" fill="white"/>
<path d="M81.7558 27.525C81.5988 27.5397 81.4406 27.5186 81.2926 27.4634C81.1446 27.4081 81.0104 27.32 80.8998 27.2054C80.7891 27.0908 80.7048 26.9525 80.6528 26.8006C80.6008 26.6487 80.5825 26.4869 80.5992 26.3269V26.0374H81.3093V26.2857C81.3093 26.6794 81.4868 26.8747 81.7531 26.8747C82.0127 26.8747 82.2058 26.7034 82.2058 26.3527C82.2141 26.2442 82.1927 26.1354 82.1438 26.0387C82.095 25.9419 82.0207 25.8609 81.9293 25.8049L81.2671 25.2657C81.0811 25.1498 80.9281 24.9859 80.8236 24.7906C80.7192 24.5953 80.6669 24.3753 80.672 24.1528C80.6513 23.9998 80.6644 23.844 80.7103 23.6969C80.7563 23.5497 80.834 23.4149 80.9377 23.3025C81.0414 23.19 81.1685 23.1028 81.3096 23.047C81.4507 22.9913 81.6023 22.9686 81.7531 22.9806C81.9068 22.969 82.0611 22.9928 82.2046 23.05C82.3482 23.1073 82.4773 23.1967 82.5826 23.3116C82.6879 23.4265 82.7667 23.564 82.8131 23.714C82.8596 23.8641 82.8725 24.0228 82.851 24.1786V24.4782H82.1387V24.2212C82.1387 23.8533 82.0132 23.6322 81.7531 23.6322C81.5015 23.6322 81.3759 23.8288 81.3759 24.1542C81.3679 24.2603 81.3897 24.3666 81.4388 24.4606C81.4878 24.5546 81.562 24.6323 81.6528 24.6848L82.3149 25.224C82.5016 25.3434 82.6546 25.5103 82.759 25.7084C82.8633 25.9064 82.9154 26.1288 82.9101 26.3536C82.9221 26.5112 82.9005 26.6696 82.8467 26.8178C82.7928 26.966 82.708 27.1004 82.5982 27.2119C82.4884 27.3233 82.3562 27.409 82.2107 27.4631C82.0653 27.5171 81.91 27.5382 81.7558 27.525Z" fill="white"/>
<path d="M-0.00195312 16.9457V0.789062H5.58724V12.657H13.1855V16.9457H-0.00195312Z" fill="white"/>
<path d="M14.963 16.9456L21.0838 0.78894H26.744L32.8649 16.9456H27.3232L26.6721 14.8056H21.1313L20.4576 16.9443L14.963 16.9456ZM22.1476 11.4176H25.6572L23.9206 5.82349L22.1476 11.4176Z" fill="white"/>
<path d="M37.3497 16.9456V10.9677L30.9448 0.78894H37.1367L40.1381 6.29518L43.163 0.78894H49.1898L42.9389 10.9677V16.9456H37.3497Z" fill="white"/>
<path d="M50.3661 16.9456V0.78894H55.6718L60.5535 8.30248C60.7413 8.58567 60.9016 8.88691 61.032 9.20191C61.2012 9.58947 61.3805 10.0577 61.5698 10.6066C61.5225 10.3214 61.487 10.0069 61.4633 9.66318C61.4397 9.31942 61.4278 8.90255 61.4278 8.41258V0.78894H66.757V16.9456H61.4265L56.5447 9.48692C56.3553 9.19158 56.192 8.87967 56.0565 8.55486C55.879 8.1528 55.6997 7.69213 55.5186 7.17286C55.575 7.46826 55.6145 7.76677 55.6367 8.06686C55.6601 8.37769 55.6719 8.8145 55.6722 9.37726V16.9443L50.3661 16.9456Z" fill="white"/>
<path d="M69.8225 16.9456V0.78894H83.7316V4.6608H75.4117V6.81082H82.445V10.5182H75.4117V13.0189H84.0733V16.9456H69.8225Z" fill="white"/>
<path d="M89.9624 11.9108H95.398C95.4996 12.4232 95.7918 12.8754 96.2133 13.1723C96.7544 13.4636 97.3638 13.5964 97.9743 13.5561C98.5055 13.5825 99.035 13.4751 99.516 13.2434C99.681 13.1705 99.8217 13.0504 99.9213 12.8976C100.021 12.7449 100.075 12.566 100.077 12.3825C100.077 11.7974 99.2934 11.3221 97.7253 10.9566C97.4102 10.8835 97.17 10.8286 97.0046 10.7921C95.7205 10.4852 94.6985 10.2054 93.9384 9.9529C93.361 9.78063 92.8042 9.54341 92.2781 9.24559C91.6534 8.84787 91.1356 8.29753 90.7714 7.64428C90.4284 6.98992 90.2554 6.2567 90.269 5.51464C90.2483 4.76755 90.4168 4.02765 90.7584 3.36661C91.1 2.70557 91.603 2.14581 92.2187 1.74155C93.5187 0.827465 95.307 0.370422 97.5837 0.370422C99.8208 0.370422 101.581 0.807377 102.865 1.68129C103.487 2.09301 104.008 2.6466 104.385 3.29849C104.762 3.95038 104.986 4.68278 105.04 5.43806H99.7362C99.7049 5.22115 99.628 5.01372 99.5107 4.83006C99.3934 4.6464 99.2385 4.49086 99.0567 4.37415C98.5763 4.11238 98.0346 3.99087 97.491 4.02298C97.0299 3.99205 96.5691 4.08665 96.1556 4.29712C96.015 4.38197 95.8998 4.50455 95.8227 4.65155C95.7455 4.79854 95.7093 4.96432 95.718 5.13085C95.718 5.66462 96.4822 6.11064 98.0107 6.4689C98.1447 6.50545 98.2471 6.53113 98.3178 6.54593C98.5382 6.59728 98.873 6.67401 99.3221 6.77611C101.347 7.25158 102.67 7.68295 103.292 8.07021C103.978 8.46124 104.558 9.01888 104.982 9.69372C105.349 10.3471 105.533 11.0905 105.515 11.8433C105.551 12.6475 105.385 13.4477 105.032 14.1678C104.68 14.8878 104.152 15.5037 103.5 15.9567C102.157 16.9146 100.233 17.3935 97.728 17.3935C95.4202 17.3935 93.5906 16.9146 92.2391 15.9567C91.5829 15.5038 91.0367 14.9039 90.6422 14.2027C90.2476 13.5016 90.0151 12.7177 89.9624 11.9108Z" fill="white"/>
<path d="M89.0173 0.763V3.33617C89.0288 3.66911 88.9682 4.00054 88.8399 4.30685C88.7116 4.61315 88.5186 4.88678 88.2749 5.10825C87.672 5.60601 86.9326 5.90048 86.1588 5.95102V4.78247C86.5157 4.73564 86.8502 4.57939 87.1183 4.33435C87.3261 4.08581 87.4304 3.76415 87.409 3.43812H86.1588V0.763H89.0173Z" fill="white"/>
<path d="M85.7109 24.7434H105.512V25.1714H85.7109V24.7434Z" fill="white"/>
<path d="M-0.00244141 24.7434H19.799V25.1714H-0.00244141V24.7434Z" fill="white"/>
</svg>
