<svg width="41" height="34" viewBox="0 0 41 34" fill="none" xmlns="http://www.w3.org/2000/svg">
<path d="M40.361 30.1896L37.4805 27.326C37.2978 27.1443 36.9992 27.1443 36.8164 27.326C36.6337 27.5077 36.6337 27.8046 36.8164 27.9863L38.9684 30.1256H31.3438V5.91201C31.3438 5.65355 31.1328 5.44627 30.8753 5.44627H25.238C24.978 5.44627 24.7695 5.65611 24.7695 5.91201V30.1256H23.1221V14.8866C23.1221 14.6281 22.911 14.4208 22.651 14.4208H17.0137C16.7537 14.4208 16.5452 14.6307 16.5452 14.8866V30.1256H14.8977V19.9867C14.8977 19.7283 14.6867 19.5184 14.4292 19.5184H8.79191C8.53192 19.5184 8.32341 19.7283 8.32341 19.9867V30.1256H4.3953V1.66657L6.54469 3.80337C6.63736 3.89549 6.75577 3.939 6.87675 3.939C6.99774 3.939 7.11615 3.89293 7.20882 3.80337C7.39158 3.62168 7.39158 3.32483 7.20882 3.14314L4.18165 0.136269C3.99888 -0.0454229 3.70028 -0.0454229 3.51752 0.136269L0.637072 2.99983C0.454309 3.18152 0.454309 3.47837 0.637072 3.66006C0.819835 3.84175 1.11843 3.84175 1.3012 3.66006L3.45317 1.52327V30.5965C3.45317 30.8549 3.66425 31.0622 3.92166 31.0622H38.8217L36.6697 33.2016C36.4869 33.3833 36.4869 33.6801 36.6697 33.8618C36.7624 33.9539 36.8808 34 37.0018 34C37.1227 34 37.2412 33.9539 37.3338 33.8618L40.1808 31.0341C40.3636 30.9701 40.5 30.8012 40.5 30.5965C40.5 30.5837 40.4949 30.5735 40.4923 30.5607C40.5026 30.4276 40.464 30.2945 40.361 30.1922M30.4043 30.1282H25.7065V6.38288H30.4043V30.1282ZM22.1799 30.1282H17.4822V15.3574H22.1799V30.1282ZM13.9556 30.1282H9.25782V20.455H13.9556V30.1282Z" fill="#F1F3F3"/>
</svg>
