<svg width="102" height="102" viewBox="0 0 102 102" fill="none" xmlns="http://www.w3.org/2000/svg">
<circle cx="51" cy="51" r="51" fill="#D9D9D9"/>
<path d="M26.9794 64V38.8H29.6434V60.724L28.4194 61.408V61.552H34.6474V64H26.9794ZM41.7954 64.432C38.6274 64.432 36.5394 62.452 36.5394 59.428V43.336C36.5394 40.348 38.6274 38.368 41.7954 38.368C44.9634 38.368 47.0514 40.348 47.0514 43.336V59.428C47.0514 62.452 44.9634 64.432 41.7954 64.432ZM41.7954 61.984C43.3434 61.984 44.3874 60.94 44.3874 59.392V43.408C44.3874 41.86 43.3434 40.816 41.7954 40.816C40.2474 40.816 39.2034 41.86 39.2034 43.408V59.392C39.2034 60.94 40.2474 61.984 41.7954 61.984ZM55.2107 64.432C52.4027 64.432 50.5667 62.524 50.5667 59.644V43.336C50.5667 40.348 52.6547 38.368 55.8227 38.368C58.9907 38.368 61.0787 40.348 61.0787 43.336V46.396H58.4147V43.408C58.4147 41.86 57.3707 40.816 55.8227 40.816C54.2747 40.816 53.2307 41.86 53.2307 43.408V59.392C53.2307 60.94 54.2747 61.984 55.8587 61.984C57.4067 61.984 58.4867 60.94 58.4867 59.392V52.336H55.8227V50.032H61.0787V64H59.2067V62.524L59.3147 62.2H58.9187L58.8467 62.524C58.2707 63.712 56.9027 64.432 55.2107 64.432ZM69.8852 64.432C66.7172 64.432 64.6292 62.452 64.6292 59.428V43.336C64.6292 40.348 66.7172 38.368 69.8852 38.368C73.0532 38.368 75.1412 40.348 75.1412 43.336V59.428C75.1412 62.452 73.0532 64.432 69.8852 64.432ZM69.8852 61.984C71.4332 61.984 72.4772 60.94 72.4772 59.392V43.408C72.4772 41.86 71.4332 40.816 69.8852 40.816C68.3372 40.816 67.2932 41.86 67.2932 43.408V59.392C67.2932 60.94 68.3372 61.984 69.8852 61.984Z" fill="white"/>
</svg>
