<svg width="54" height="68" viewBox="0 0 54 68" fill="none" xmlns="http://www.w3.org/2000/svg">
<path d="M0 28.6233V0H13.4361C13.4384 0.0526647 13.4303 0.105267 13.4123 0.154711C13.2934 0.649274 13.2129 1.1525 13.1714 1.6598C13.0769 2.72176 13.1274 3.79188 13.3214 4.83988C13.5591 6.19064 14.0922 7.47036 14.8814 8.58515C14.9008 8.61198 14.9176 8.64058 14.9387 8.66564C14.9837 8.71751 14.9723 8.75505 14.9228 8.79888C14.8867 8.82751 14.854 8.85969 14.8205 8.88832C14.1572 9.48911 13.6037 10.2039 13.1856 10.9997C12.5423 12.2168 12.237 13.527 12.1514 14.8934C12.0716 16.083 12.1608 17.2781 12.4162 18.442C12.7585 19.9793 13.3726 21.3931 14.3343 22.6335C15.7584 24.4758 17.6316 25.6015 19.8568 26.1553C21.0457 26.4397 22.267 26.5601 23.4875 26.5128C24.6041 26.4907 25.7125 26.3162 26.7832 25.9941C29.4628 25.1662 31.493 23.5269 32.7485 20.9745C33.9467 18.5377 34.2186 15.9666 33.6698 13.3088C33.3471 11.7082 32.5404 10.2493 31.3616 9.13514C31.253 9.0305 31.141 8.93033 31.0341 8.83018C31.0586 8.76457 31.0944 8.70395 31.1401 8.65132C31.4374 8.22462 31.6992 7.77354 31.9227 7.30274C32.435 6.21475 32.7561 5.04445 32.8712 3.84454C32.9802 2.80076 32.9369 1.74638 32.7423 0.715429C32.6974 0.475759 32.6401 0.238775 32.588 0H53.9351V54.6659H16.0981C16.0796 54.6185 16.1149 54.5934 16.1387 54.5631C16.211 54.4737 16.286 54.3779 16.3558 54.2822C17.6713 52.5001 18.2889 50.478 18.3604 48.2745C18.4098 46.7917 18.1063 45.3699 17.5434 44.0051C17.0054 42.6631 16.1743 41.462 15.1126 40.4925C13.4494 38.9845 11.4677 38.2773 9.27152 38.1119C8.59301 38.0608 7.9145 38.0805 7.23599 38.076C7.131 38.076 7.02689 38.076 6.92277 38.0707C6.44542 38.0366 6.07748 37.7675 5.9522 37.332C5.82426 36.8661 5.86397 36.3866 5.9028 35.9127C5.91427 35.7472 6.02631 35.6633 6.19396 35.6444C6.28484 35.6353 6.37619 35.632 6.46748 35.6345C9.718 35.6345 12.9685 35.6345 16.219 35.6345C16.369 35.6359 16.5189 35.6288 16.6681 35.6131C17.1419 35.5605 17.4401 35.2849 17.5504 34.8164C17.5802 34.6671 17.5929 34.5151 17.5884 34.363C17.5884 32.8724 17.5884 31.3841 17.5884 29.8979C17.5884 29.8084 17.5884 29.7117 17.5804 29.6197C17.5372 29.0831 17.2513 28.7602 16.7325 28.6511C16.5844 28.6263 16.4342 28.617 16.2843 28.6233H0.567338C0.377637 28.6172 0.188819 28.6216 0 28.6233ZM10.7777 13.5994C10.7777 9.96265 10.7777 6.32588 10.7777 2.68912C10.7777 1.98621 10.4706 1.66248 9.77887 1.65532C8.85242 1.64549 7.92597 1.65532 6.99865 1.65532C6.802 1.65509 6.6093 1.7112 6.44277 1.81719C5.04105 2.66856 3.63697 3.51931 2.23053 4.36949C1.79554 4.63241 1.55643 5.00263 1.55378 5.51864C1.55378 6.18666 1.55378 6.85471 1.55378 7.52274C1.55468 7.56911 1.55822 7.6154 1.56437 7.66136C1.58035 7.86473 1.66634 8.05594 1.80729 8.20158C1.94825 8.34723 2.13522 8.43804 2.33554 8.45815C2.43878 8.47233 2.5428 8.4798 2.64699 8.48051C3.07756 8.48051 3.50814 8.48051 3.9396 8.48051C4.03666 8.48051 4.13547 8.48051 4.23254 8.49304C4.64282 8.53776 4.89429 8.77294 4.98694 9.18163C5.01421 9.33802 5.02398 9.49701 5.01606 9.6556V24.3434C5.01606 24.4328 5.01606 24.5286 5.01606 24.6205C5.04253 25.1447 5.32751 25.4648 5.83926 25.5434C5.91024 25.5543 5.9819 25.5596 6.05368 25.5596H9.75681C9.8678 25.5596 9.97845 25.5474 10.0868 25.5229C10.2423 25.4952 10.3864 25.4221 10.5016 25.3128C10.6167 25.2032 10.698 25.0622 10.7353 24.9068C10.7718 24.7456 10.7861 24.58 10.7777 24.4149V13.5994ZM28.4455 40.5683C28.4455 36.9823 28.4455 33.3966 28.4455 29.811C28.4482 29.6788 28.4444 29.5466 28.4341 29.4148C28.3899 28.9954 28.1614 28.7433 27.7573 28.6486C27.6411 28.6253 27.5227 28.6159 27.4044 28.6198C26.5035 28.6198 25.6025 28.6198 24.7017 28.6198C24.4795 28.6172 24.2611 28.6793 24.0725 28.7987C23.3148 29.2663 22.5533 29.7269 21.7935 30.1912C21.1465 30.5851 20.498 30.9801 19.8481 31.3761C19.6899 31.4635 19.5532 31.586 19.4485 31.7346C19.3436 31.8831 19.2733 32.0537 19.2427 32.2337C19.2236 32.3645 19.2151 32.4967 19.2171 32.6289C19.2171 33.2049 19.2171 33.7807 19.2171 34.3557C19.2164 34.455 19.2214 34.5541 19.2322 34.6527C19.2509 34.8387 19.3284 35.0134 19.4529 35.1511C19.5777 35.289 19.7427 35.3822 19.9239 35.4173C20.0327 35.4413 20.1435 35.4533 20.2548 35.4531C20.5477 35.4531 20.8416 35.4531 21.137 35.4531C21.3329 35.4531 21.5288 35.4531 21.7247 35.4531C22.3494 35.4647 22.6707 35.7929 22.6829 36.4296C22.6829 36.5289 22.6829 36.6281 22.6829 36.7274C22.6829 41.5899 22.6829 46.4521 22.6829 51.3142C22.6829 51.4036 22.6829 51.5001 22.6829 51.5923C22.7148 52.1163 22.997 52.4417 23.4858 52.516C23.5633 52.5257 23.6417 52.5296 23.7196 52.5276H27.4256C27.4837 52.5276 27.5427 52.5276 27.602 52.5223C28.1048 52.4748 28.4111 52.1565 28.4418 51.6459C28.448 51.5403 28.4473 51.434 28.4473 51.3284C28.4473 47.7412 28.4467 44.1545 28.4455 40.5683Z" fill="#F1F3F3"/>
<path d="M0 44.8611C0.109166 44.8435 0.220126 44.841 0.329993 44.853C2.31435 44.853 4.30048 44.853 6.28307 44.8593C7.07392 44.8522 7.86082 44.973 8.6142 45.217C8.8186 45.2852 9.01745 45.3695 9.20889 45.4692C10.0762 45.9252 10.5888 46.6533 10.8085 47.6083C10.9294 48.1322 10.9612 48.6572 10.7962 49.1759C10.4883 50.1462 9.8177 50.6962 8.8339 50.8536C8.30933 50.9346 7.77365 50.8985 7.26423 50.748C6.89991 50.6509 6.56147 50.4727 6.27337 50.2266C5.98528 49.9806 5.75472 49.6727 5.59838 49.3254C5.42614 48.9612 5.30726 48.5733 5.24545 48.1744C5.2217 48.004 5.17848 47.8372 5.11663 47.6772C5.04871 47.4855 4.91748 47.3238 4.74524 47.2192C4.57301 47.1144 4.37035 47.0734 4.17166 47.103C3.84237 47.1497 3.51595 47.2155 3.19404 47.2998C2.16171 47.5269 1.13115 47.7593 0.0997033 47.9892C0.0675759 47.9942 0.0351447 47.9969 0.00264699 47.9973L0 44.8611Z" fill="#F1F3F3"/>
<path d="M23.282 12.529C23.7046 12.5384 24.1234 12.6092 24.5261 12.7391C25.591 13.0897 26.2026 13.8382 26.394 14.9444C26.5042 15.525 26.4875 16.1229 26.3455 16.6963C26.0658 17.7695 25.3748 18.4455 24.3434 18.7603C23.4068 19.0538 22.4018 19.0347 21.4767 18.7058C20.4612 18.3481 19.87 17.6121 19.668 16.5532C19.5458 15.9479 19.5625 15.3222 19.7164 14.7244C19.9953 13.6656 20.687 13.0181 21.707 12.7051C22.1033 12.5835 22.5796 12.52 23.282 12.529Z" fill="#F1F3F3"/>
<path d="M22.9909 6.40393C22.5377 6.4114 22.0862 6.34218 21.6551 6.19915C20.6625 5.85574 20.1049 5.14479 19.9417 4.10652C19.8632 3.6216 19.8791 3.12578 19.9885 2.64704C20.2266 1.61951 20.8532 0.947903 21.8413 0.63848C22.6467 0.387574 23.5085 0.391317 24.3119 0.649212C25.3028 0.955057 25.8798 1.6535 26.0765 2.67657C26.1912 3.20922 26.1888 3.76093 26.0695 4.29254C25.8285 5.29324 25.1871 5.91745 24.2377 6.22956C23.8348 6.35794 23.4132 6.4169 22.9909 6.40393Z" fill="#F1F3F3"/>
<path d="M0 67.7861V59.2993H4.42806V60.7969H1.64737V62.8413H4.24113V64.3391H1.64737V67.7861H0ZM9.29689 67.7861L8.07013 64.565C8.0156 64.5727 7.89487 64.5767 7.70794 64.5767H7.05366V67.7861H5.48806V59.2993H7.87151C8.76725 59.2993 9.45657 59.5212 9.9395 59.9648C10.4302 60.4087 10.6756 61.0425 10.6756 61.8668C10.6756 62.3501 10.5743 62.7859 10.3718 63.1742C10.1693 63.5546 9.87718 63.8636 9.49552 64.1012L11.0144 67.7861H9.29689ZM7.74298 63.2098C8.20253 63.2098 8.54137 63.1068 8.75945 62.9009C8.97754 62.6869 9.0866 62.358 9.0866 61.9142C9.0866 61.4943 8.97754 61.1814 8.75945 60.9752C8.54137 60.7692 8.20643 60.6662 7.75467 60.6662H7.05366V63.2098H7.74298ZM16.3441 67.7861L15.9118 65.8606H13.5751L13.1194 67.7861H11.5071L13.8204 59.2993H15.7599L18.0148 67.7861H16.3441ZM14.7551 60.7851L13.8905 64.4817H15.5963L14.7551 60.7851ZM22.8909 67.7861L20.3672 62.2351V67.7861H18.8716V59.2993H20.4139L22.9375 64.8502V59.2993H24.433V67.7861H22.8909ZM31.6575 64.7076C31.5874 65.7693 31.2992 66.5855 30.7929 67.1562C30.2867 67.7187 29.6012 68 28.7367 68C27.7319 68 26.9724 67.6277 26.4584 66.8827C25.9442 66.1379 25.6873 65.0363 25.6873 63.5783C25.6873 62.1282 25.952 61.0188 26.4817 60.2501C27.0192 59.4736 27.7941 59.0854 28.8068 59.0854C30.3879 59.0854 31.3149 60.1035 31.5874 62.1401L29.9634 62.354C29.8701 61.728 29.7297 61.2764 29.5429 60.9991C29.3559 60.7216 29.0988 60.583 28.7718 60.583C28.3044 60.583 27.9578 60.8246 27.7319 61.308C27.5138 61.7835 27.4047 62.5244 27.4047 63.5307C27.4047 64.5451 27.5177 65.2939 27.7436 65.7773C27.9694 66.2606 28.3199 66.5024 28.7951 66.5024C29.1612 66.5024 29.4455 66.3558 29.648 66.0626C29.8505 65.7694 29.9752 65.3178 30.0218 64.7076H31.6575ZM36.6965 67.7861V64.1608H34.3248V67.7861H32.6775V59.2993H34.3248V62.6156H36.6965V59.2993H38.3438V67.7861H36.6965ZM39.9112 67.7861V59.2993H41.5585V67.7861H39.9112ZM44.706 64.0419C44.0438 63.8439 43.5571 63.5467 43.2455 63.1505C42.934 62.7463 42.7782 62.2194 42.7782 61.5696C42.7782 60.8168 43.0196 60.2144 43.5026 59.7628C43.9855 59.3111 44.6242 59.0854 45.4186 59.0854C46.1742 59.0854 46.7622 59.2794 47.1829 59.6678C47.6035 60.0561 47.8682 60.6543 47.9773 61.4626L46.4117 61.6766C46.3339 61.2327 46.217 60.9198 46.0612 60.7375C45.9055 60.5473 45.6756 60.4523 45.372 60.4523C45.0681 60.4523 44.8345 60.5433 44.671 60.7256C44.5073 60.8999 44.4256 61.1614 44.4256 61.51C44.4256 61.8033 44.4879 62.0331 44.6124 62.1995C44.7372 62.358 44.9514 62.4847 45.2551 62.5799L46.143 62.8652C46.6182 63.0158 46.9999 63.2058 47.2881 63.4357C47.5761 63.6576 47.7866 63.9309 47.919 64.2558C48.0513 64.5807 48.1175 64.969 48.1175 65.4207C48.1175 66.2132 47.8761 66.843 47.3932 67.3106C46.918 67.7703 46.2676 68 45.442 68C43.7051 68 42.7782 67.0809 42.6613 65.2425H44.297C44.336 65.7257 44.445 66.0785 44.6242 66.3002C44.8112 66.5221 45.0916 66.6331 45.4653 66.6331C45.7847 66.6331 46.03 66.5381 46.2014 66.3478C46.3805 66.1498 46.4702 65.8683 46.4702 65.504C46.4702 65.1791 46.3962 64.9215 46.2482 64.7313C46.108 64.5411 45.882 64.3985 45.5705 64.3034L44.706 64.0419ZM49.2214 67.7861V59.2993H53.8015V60.7969H50.8689V62.6869H53.6145V64.1845H50.8689V66.2885H54L53.8248 67.7861H49.2214Z" fill="#F1F3F3"/>
</svg>
