<svg width="286" height="16" viewBox="0 0 286 16" fill="none" xmlns="http://www.w3.org/2000/svg">
<path d="M33 3L27 8L33 13" stroke="#EB0444" stroke-width="2"/>
<path d="M13 3L8 8L13 13" stroke="#EB0444" stroke-width="2"/>
<path d="M8 3L2 8L8 13" stroke="#EB0444" stroke-width="2"/>
<path d="M72.361 12V5.742L70.793 7.324L69.421 5.882L72.683 2.662H74.769V12H72.361Z" fill="#EB0444"/>
<path d="M88.3084 12V10.712C91.9344 7.968 93.3484 6.75 93.3484 5.406C93.3484 4.426 92.5084 3.978 91.6544 3.978C90.5624 3.978 89.7224 4.426 89.1344 5.098L88.1824 4.02C89.0084 3.026 90.3244 2.522 91.6264 2.522C93.4324 2.522 95.0144 3.544 95.0144 5.406C95.0144 7.128 93.4324 8.668 90.9264 10.558H95.0704V12H88.3084ZM108.266 10.656L109.148 9.578C109.75 10.278 110.744 10.712 111.738 10.712C112.97 10.712 113.684 10.152 113.684 9.284C113.684 8.36 112.942 7.968 111.612 7.968C111.22 7.968 110.674 7.968 110.534 7.982V6.512C110.702 6.526 111.248 6.526 111.612 6.526C112.704 6.526 113.53 6.148 113.53 5.294C113.53 4.426 112.69 3.978 111.64 3.978C110.688 3.978 109.904 4.342 109.232 5.014L108.392 3.992C109.106 3.152 110.24 2.522 111.794 2.522C113.81 2.522 115.168 3.474 115.168 5.042C115.168 6.288 114.104 7.016 113.138 7.184C114.048 7.268 115.308 8.01 115.308 9.452C115.308 11.034 113.95 12.168 111.794 12.168C110.128 12.168 108.896 11.496 108.266 10.656ZM132.809 12V9.886H128.357V8.57L132.193 2.662H134.447V8.444H135.693V9.886H134.447V12H132.809ZM132.809 4.132L129.967 8.444H132.809V4.132ZM148.866 10.726L149.804 9.606C150.434 10.32 151.274 10.712 152.324 10.712C153.5 10.712 154.242 9.984 154.242 9.074C154.242 8.066 153.514 7.408 152.366 7.408C151.568 7.408 150.91 7.66 150.322 8.22L149.16 7.884V2.662H155.278V4.104H150.798V6.806C151.246 6.358 152.016 5.994 152.912 5.994C154.48 5.994 155.894 7.1 155.894 9.004C155.894 10.95 154.424 12.168 152.338 12.168C150.728 12.168 149.622 11.622 148.866 10.726ZM169.046 7.352C169.046 4.65 170.46 2.522 173.162 2.522C174.324 2.522 175.22 2.942 175.85 3.558L175.08 4.804C174.59 4.286 174.058 3.978 173.162 3.978C171.608 3.978 170.698 5.42 170.698 7.058C170.698 7.156 170.698 7.24 170.712 7.324C171.132 6.694 172.112 6.022 173.218 6.022C174.898 6.022 176.34 7.044 176.34 9.032C176.34 10.768 174.982 12.168 172.896 12.168C170.152 12.168 169.046 9.942 169.046 7.352ZM174.688 9.088C174.688 7.94 173.792 7.422 172.77 7.422C171.972 7.422 171.202 7.856 170.726 8.528C170.824 9.536 171.37 10.712 172.812 10.712C174.044 10.712 174.688 9.844 174.688 9.088ZM190.57 12L194.098 4.104H189.254V2.662H195.988V3.796L192.362 12H190.57ZM208.911 9.606C208.911 8.416 209.877 7.562 211.011 7.184C209.961 6.848 209.065 6.162 209.065 4.972C209.065 3.25 210.829 2.522 212.495 2.522C214.133 2.522 215.925 3.25 215.925 4.972C215.925 6.162 215.015 6.848 213.965 7.184C215.099 7.562 216.065 8.416 216.065 9.606C216.065 11.272 214.399 12.168 212.495 12.168C210.577 12.168 208.911 11.286 208.911 9.606ZM214.259 5.224C214.259 4.44 213.489 3.978 212.495 3.978C211.473 3.978 210.717 4.44 210.717 5.224C210.717 6.106 211.921 6.442 212.495 6.54C213.069 6.442 214.259 6.106 214.259 5.224ZM214.413 9.396C214.413 8.43 213.069 7.996 212.495 7.926C211.907 7.996 210.563 8.43 210.563 9.396C210.563 10.208 211.431 10.712 212.495 10.712C213.531 10.712 214.413 10.208 214.413 9.396Z" fill="#EB0444" fill-opacity="0.5"/>
<path d="M253 13L259 8L253 3" stroke="#EB0444" stroke-width="2"/>
<path d="M273 13L278 8L273 3" stroke="#EB0444" stroke-width="2"/>
<path d="M278 13L284 8L278 3" stroke="#EB0444" stroke-width="2"/>
</svg>
