<svg width="20" height="19" viewBox="0 0 20 19" fill="none" xmlns="http://www.w3.org/2000/svg">
<path fill-rule="evenodd" clip-rule="evenodd" d="M8.47185 1.3869C4.81865 1.3869 1.85714 4.41335 1.85714 8.14666C1.85714 11.88 4.81865 14.9064 8.47185 14.9064C12.1251 14.9064 15.0866 11.88 15.0866 8.14666C15.0866 4.41335 12.1251 1.3869 8.47185 1.3869ZM0.5 8.14666C0.5 3.64738 4.06912 0 8.47185 0C12.8746 0 16.4437 3.64738 16.4437 8.14666C16.4437 10.0403 15.8115 11.7831 14.7509 13.1665L19.3012 17.8162C19.5662 18.087 19.5663 18.5261 19.3013 18.7969C19.0363 19.0677 18.6066 19.0677 18.3416 18.7969L13.8259 14.1826C12.4109 15.4942 10.5327 16.2933 8.47185 16.2933C4.06912 16.2933 0.5 12.6459 0.5 8.14666Z" fill="url(#paint0_linear_222_4853)"/>
<defs>
<linearGradient id="paint0_linear_222_4853" x1="5.06272" y1="4.61429" x2="20.8682" y2="6.60641" gradientUnits="userSpaceOnUse">
<stop stop-color="#AC0432"/>
<stop offset="1" stop-color="#EB0444"/>
</linearGradient>
</defs>
</svg>
