<svg width="84" height="74" viewBox="0 0 84 74" fill="none" xmlns="http://www.w3.org/2000/svg">
<path d="M74.7864 61.6605C74.0718 61.6605 73.493 61.0779 73.493 60.3598V27.5252C73.493 25.1021 71.5333 23.1312 69.124 23.1312H42.1749C41.4603 23.1312 40.8816 22.5486 40.8816 21.8305C40.8816 21.1124 41.4609 20.5297 42.1749 20.5297H69.124C72.9597 20.5297 76.0803 23.6681 76.0803 27.5257V60.3604C76.0803 61.079 75.501 61.6611 74.7869 61.6611L74.7864 61.6605Z" fill="url(#paint0_linear_181_1337)"/>
<path d="M12.302 61.6605C11.5874 61.6605 11.0087 61.0779 11.0087 60.3598V40.808C11.0087 40.0893 11.588 39.5073 12.302 39.5073C13.0161 39.5073 13.5954 40.0899 13.5954 40.808V60.3598C13.5954 61.0785 13.0161 61.6605 12.302 61.6605Z" fill="url(#paint1_linear_181_1337)"/>
<path d="M26.5971 67.4249H8.56445C5.82086 67.4249 3.58841 65.1803 3.58841 62.421V60.8978C3.58841 60.4066 3.778 59.945 4.12337 59.5976C4.46875 59.2503 4.92777 59.0591 5.41617 59.0591H30.4427C31.1573 59.0591 31.7361 59.6417 31.7361 60.3598C31.7361 61.0779 31.1568 61.6605 30.4427 61.6605H6.1751V62.4205C6.1751 63.7452 7.24671 64.8229 8.56389 64.8229H26.5965C27.3111 64.8229 27.8899 65.4055 27.8899 66.1236C27.8899 66.8418 27.3105 67.4244 26.5965 67.4244L26.5971 67.4249Z" fill="url(#paint2_linear_181_1337)"/>
<path d="M78.5245 67.4249H60.5673C59.8527 67.4249 59.2739 66.8423 59.2739 66.1242C59.2739 65.4061 59.8533 64.8235 60.5673 64.8235H78.5245C79.8417 64.8235 80.9128 63.7457 80.9128 62.4216V61.6611H56.6462C55.9316 61.6611 55.3529 61.0785 55.3529 60.3604C55.3529 59.6422 55.9322 59.0596 56.6462 59.0596H81.6722C82.6801 59.0596 83.5 59.8842 83.5 60.8978V62.4216C83.5 65.1808 81.2681 67.4255 78.5245 67.4255V67.4249Z" fill="url(#paint3_linear_181_1337)"/>
<path d="M44.7156 27.4254H42.3723C41.6577 27.4254 41.0789 26.8427 41.0789 26.1246C41.0789 25.4065 41.6582 24.8239 42.3723 24.8239H44.7156C45.4302 24.8239 46.0089 25.4065 46.0089 26.1246C46.0089 26.8427 45.4296 27.4254 44.7156 27.4254Z" fill="url(#paint4_linear_181_1337)"/>
<path d="M74.7864 31.7207H39.6775C38.9629 31.7207 38.3841 31.138 38.3841 30.4199C38.3841 29.7018 38.9634 29.1192 39.6775 29.1192H74.7864C75.501 29.1192 76.0797 29.7018 76.0797 30.4199C76.0797 31.138 75.5004 31.7207 74.7864 31.7207Z" fill="url(#paint5_linear_181_1337)"/>
<path d="M43.5425 57.4539C38.3475 57.4539 34.121 53.2038 34.121 47.9796C34.121 42.7555 38.3475 38.5054 43.5425 38.5054C48.7376 38.5054 52.963 42.7555 52.963 47.9796C52.963 53.2038 48.737 57.4539 43.5425 57.4539ZM43.5425 41.1074C39.7739 41.1074 36.7082 44.1906 36.7082 47.9796C36.7082 51.7687 39.7739 54.8519 43.5425 54.8519C47.3112 54.8519 50.3757 51.7687 50.3757 47.9796C50.3757 44.1906 47.3101 41.1074 43.5425 41.1074Z" fill="url(#paint6_linear_181_1337)"/>
<path d="M43.542 74C36.2004 74 31.2155 72.0748 31.0065 71.9929C30.4477 71.7732 30.1123 71.1967 30.196 70.599C30.6456 67.3943 32.2328 64.4499 34.6654 62.3073C37.1213 60.144 40.274 58.9526 43.542 58.9526C46.81 58.9526 49.9733 60.1479 52.4313 62.3179C54.8661 64.4678 56.4505 67.421 56.8929 70.633C56.9755 71.2318 56.6368 71.8094 56.0752 72.0257C55.8668 72.106 50.8802 73.9983 43.542 73.9983V74ZM32.9601 69.906C34.7031 70.4345 38.5637 71.398 43.542 71.398C48.5202 71.398 52.3837 70.4507 54.1305 69.9305C53.6066 67.7517 52.4214 65.7724 50.7244 64.2743C48.7387 62.5208 46.188 61.5552 43.542 61.5552C40.896 61.5552 38.3542 62.5175 36.3701 64.2654C34.6748 65.7585 33.4879 67.7321 32.9601 69.906Z" fill="url(#paint7_linear_181_1337)"/>
<path d="M17.5414 28.4663H17.5392C16.3439 28.4663 15.2213 27.9968 14.377 27.1466L9.16151 21.8929C7.42133 20.1394 7.42244 17.2882 9.16428 15.5364C9.16594 15.5347 9.1676 15.5331 9.16982 15.5314C10.0141 14.6845 11.1351 14.2178 12.3281 14.2178C13.5211 14.2178 14.6454 14.6856 15.4897 15.5347L17.548 17.6049L23.1328 11.9882C23.9771 11.1391 25.1003 10.6713 26.2944 10.6713C27.4885 10.6713 28.6116 11.1391 29.456 11.9882C30.3003 12.8373 30.7654 13.9669 30.7654 15.1679C30.7654 16.3688 30.3003 17.4978 29.456 18.3475L20.7035 27.1499C19.8592 27.9991 18.7361 28.4669 17.5419 28.4669L17.5414 28.4663ZM10.9909 17.3785C10.2597 18.1167 10.2597 19.3165 10.992 20.0541L16.2076 25.3078C16.5635 25.6663 17.0364 25.8637 17.5403 25.8643H17.5408C18.0442 25.8643 18.5171 25.6674 18.873 25.3095L27.6254 16.5071C28.36 15.7683 28.36 14.5663 27.6254 13.8275C27.2695 13.4696 26.7966 13.2728 26.2933 13.2728C25.7899 13.2728 25.317 13.4696 24.9611 13.8275L18.4616 20.3641C17.9566 20.8721 17.1373 20.8721 16.6322 20.3641L13.6591 17.374C13.3032 17.0161 12.8303 16.8193 12.327 16.8193C11.8236 16.8193 11.3507 17.0167 10.9948 17.374C10.9932 17.3757 10.992 17.3768 10.9904 17.3785H10.9909Z" fill="url(#paint8_linear_181_1337)"/>
<path d="M19.3098 37.8341C16.7714 37.8341 14.3077 37.334 11.9877 36.3471C9.74748 35.3943 7.73622 34.0305 6.00935 32.2938C4.28248 30.5571 2.92649 28.5338 1.97906 26.2813C0.997272 23.948 0.5 21.4703 0.5 18.9168C0.5 16.3632 0.997272 13.8861 1.97851 11.5528C2.92593 9.29976 4.28193 7.27701 6.00879 5.54027C7.73566 3.80353 9.74748 2.43979 11.9871 1.48696C14.3072 0.500113 16.7708 0 19.3098 0C21.8489 0 24.3119 0.500113 26.632 1.48696C28.8722 2.43979 30.8835 3.80353 32.6103 5.54027C34.3372 7.27701 35.6932 9.30032 36.6406 11.5528C37.6219 13.8855 38.1191 16.3632 38.1191 18.9168C38.1191 21.4703 37.6219 23.9474 36.6406 26.2807C35.6932 28.5338 34.3372 30.5565 32.6103 32.2933C30.8835 34.03 28.8716 35.3937 26.632 36.3466C24.3125 37.3334 21.8489 37.8335 19.3098 37.8335V37.8341ZM19.3098 2.60204C14.9769 2.60204 10.9028 4.29919 7.83878 7.38071C4.77476 10.4622 3.08725 14.5596 3.08725 18.9173C3.08725 23.275 4.77476 27.3724 7.83878 30.4539C10.9028 33.5354 14.9769 35.2326 19.3098 35.2326C23.6428 35.2326 27.7169 33.5354 30.7809 30.4539C33.8449 27.3724 35.5324 23.275 35.5324 18.9173C35.5324 14.5596 33.8449 10.4622 30.7809 7.38071C27.7169 4.29919 23.6428 2.60204 19.3098 2.60204Z" fill="url(#paint9_linear_181_1337)"/>
<defs>
<linearGradient id="paint0_linear_181_1337" x1="20.4319" y1="17.9714" x2="89.1995" y2="27.693" gradientUnits="userSpaceOnUse">
<stop stop-color="#AC0432"/>
<stop offset="1" stop-color="#EB0444"/>
</linearGradient>
<linearGradient id="paint1_linear_181_1337" x1="20.4319" y1="17.9714" x2="89.1995" y2="27.693" gradientUnits="userSpaceOnUse">
<stop stop-color="#AC0432"/>
<stop offset="1" stop-color="#EB0444"/>
</linearGradient>
<linearGradient id="paint2_linear_181_1337" x1="20.4319" y1="17.9714" x2="89.1995" y2="27.693" gradientUnits="userSpaceOnUse">
<stop stop-color="#AC0432"/>
<stop offset="1" stop-color="#EB0444"/>
</linearGradient>
<linearGradient id="paint3_linear_181_1337" x1="20.4319" y1="17.9714" x2="89.1995" y2="27.693" gradientUnits="userSpaceOnUse">
<stop stop-color="#AC0432"/>
<stop offset="1" stop-color="#EB0444"/>
</linearGradient>
<linearGradient id="paint4_linear_181_1337" x1="20.4319" y1="17.9714" x2="89.1995" y2="27.693" gradientUnits="userSpaceOnUse">
<stop stop-color="#AC0432"/>
<stop offset="1" stop-color="#EB0444"/>
</linearGradient>
<linearGradient id="paint5_linear_181_1337" x1="20.4319" y1="17.9714" x2="89.1995" y2="27.693" gradientUnits="userSpaceOnUse">
<stop stop-color="#AC0432"/>
<stop offset="1" stop-color="#EB0444"/>
</linearGradient>
<linearGradient id="paint6_linear_181_1337" x1="20.4319" y1="17.9714" x2="89.1995" y2="27.693" gradientUnits="userSpaceOnUse">
<stop stop-color="#AC0432"/>
<stop offset="1" stop-color="#EB0444"/>
</linearGradient>
<linearGradient id="paint7_linear_181_1337" x1="20.4319" y1="17.9714" x2="89.1995" y2="27.693" gradientUnits="userSpaceOnUse">
<stop stop-color="#AC0432"/>
<stop offset="1" stop-color="#EB0444"/>
</linearGradient>
<linearGradient id="paint8_linear_181_1337" x1="20.4319" y1="17.9714" x2="89.1995" y2="27.693" gradientUnits="userSpaceOnUse">
<stop stop-color="#AC0432"/>
<stop offset="1" stop-color="#EB0444"/>
</linearGradient>
<linearGradient id="paint9_linear_181_1337" x1="20.4319" y1="17.9714" x2="89.1995" y2="27.693" gradientUnits="userSpaceOnUse">
<stop stop-color="#AC0432"/>
<stop offset="1" stop-color="#EB0444"/>
</linearGradient>
</defs>
</svg>
