<svg width="90" height="77" viewBox="0 0 90 77" fill="none" xmlns="http://www.w3.org/2000/svg">
<path d="M20.1428 77.001C19.4597 77.001 18.8686 76.4885 18.7889 75.7941C18.1835 70.4887 14.6433 66.7312 10.8945 62.7552C8.6039 60.3251 6.23558 57.8113 4.42765 54.8277C-0.261941 47.082 -0.394877 37.919 0.320935 31.5966C0.869042 26.7548 1.57463 22.644 2.36202 19.7074C3.47869 15.5477 4.7651 13.671 6.53213 13.6219C7.65084 13.5893 8.6448 14.0079 9.40765 14.8288C11.8148 17.4203 11.5449 23.614 10.8945 29.9221C10.827 30.5674 10.7513 31.2985 10.7554 31.4782C10.7718 32.2256 10.1787 32.8546 9.4281 32.875C8.68775 32.8934 8.05374 32.3155 8.0292 31.5681C8.01898 31.2372 8.07011 30.7104 8.18054 29.6444C8.45869 26.9447 9.30744 18.7272 7.40747 16.6831C7.20091 16.4605 6.99434 16.3584 6.71211 16.3461C6.40738 16.6177 4.5115 18.8028 3.02875 31.903C2.48269 36.7346 2.23931 45.9568 6.75915 53.4187C8.41574 56.1551 10.6838 58.5607 12.8783 60.8887C16.7682 65.0159 20.7891 69.2818 21.4967 75.4858C21.5826 76.2332 21.0447 76.9071 20.2962 76.9929C20.243 76.999 20.1919 77.001 20.1407 77.001H20.1428Z" fill="url(#paint0_linear_182_1375)"/>
<path d="M39.0157 76.7601H39.0075C38.2549 76.756 37.6474 76.1433 37.6515 75.3918C37.6658 72.9515 38.1874 70.5051 38.6925 68.1403C39.8849 62.5633 40.9136 57.7459 35.7904 53.5392C34.3649 52.369 32.6633 51.444 30.8615 50.4658C29.2683 49.5999 27.6199 48.7055 26.1535 47.6109C24.0245 46.0221 22.3638 44.1168 20.7563 42.2749C19.9914 41.3988 19.2695 40.5697 18.4985 39.7712C18.3757 39.6426 18.2367 39.4976 18.0874 39.3363C16.938 38.113 14.5431 35.5645 12.819 36.0423C12.3895 36.1608 12.2218 36.3793 12.1236 36.5549C11.8803 36.9919 11.5919 38.1273 12.3936 40.8229C13.2935 43.8555 15.6188 46.4734 18.0812 49.2466C20.0548 51.4705 22.098 53.7699 23.4416 56.39C23.7852 57.0598 23.5194 57.8787 22.8506 58.2217C22.1798 58.5648 21.3597 58.2993 21.0161 57.6316C19.8299 55.3179 17.9033 53.1491 16.0422 51.0519C13.4919 48.1786 10.8536 45.2073 9.78192 41.5948C8.94544 38.7726 8.93112 36.6917 9.74306 35.2316C10.2441 34.329 11.0581 33.7021 12.0971 33.4141C15.4123 32.4993 18.4494 35.734 20.0814 37.4698C20.2225 37.6188 20.3514 37.7577 20.468 37.8782C21.2881 38.7277 22.0652 39.6201 22.8179 40.4839C24.4008 42.2994 25.8938 44.0127 27.7897 45.4279C29.0986 46.404 30.5895 47.2147 32.1664 48.0704C34.0009 49.0669 35.8988 50.0962 37.5247 51.4338C43.9302 56.6942 42.5661 63.0759 41.3615 68.706C40.8849 70.936 40.3921 73.2435 40.3798 75.4041C40.3757 76.1536 39.7662 76.758 39.0157 76.758V76.7601Z" fill="url(#paint1_linear_182_1375)"/>
<path d="M69.8569 77.001C69.8058 77.001 69.7526 76.999 69.7015 76.9929C68.9529 76.9071 68.4151 76.2332 68.501 75.4858C69.2086 69.2818 73.2294 65.0138 77.1193 60.8887C79.3118 58.5628 81.5799 56.1551 83.2385 53.4187C87.7583 45.9548 87.5149 36.7346 86.9689 31.903C85.4861 18.8028 83.5903 16.6177 83.2855 16.3461C83.0033 16.3584 82.7967 16.4605 82.5902 16.6831C80.6902 18.7272 81.5389 26.9447 81.8171 29.6444C81.9275 30.7104 81.9787 31.2372 81.9684 31.5681C81.9439 32.3195 81.3181 32.9077 80.5614 32.8832C79.8087 32.8587 79.2197 32.2277 79.2443 31.4782C79.2484 31.3005 79.1727 30.5695 79.1052 29.9241C78.4548 23.6161 78.1828 17.4223 80.592 14.8309C81.3549 14.0099 82.3468 13.5934 83.4676 13.624C85.2366 13.673 86.523 15.5497 87.6377 19.7095C88.4251 22.646 89.1327 26.7568 89.6787 31.5987C90.3946 37.9211 90.2637 47.084 85.572 54.8298C83.7641 57.8133 81.3958 60.3272 79.1052 62.7573C75.3564 66.7353 71.8141 70.4908 71.2108 75.7962C71.1311 76.4905 70.542 77.0031 69.8569 77.0031V77.001Z" fill="url(#paint2_linear_182_1375)"/>
<path d="M50.984 76.7601C50.2355 76.7601 49.624 76.1556 49.6199 75.4061C49.6076 73.2456 49.1147 70.938 48.6382 68.708C47.4336 63.0779 46.0695 56.6942 52.475 51.4358C54.1009 50.1002 55.9988 49.069 57.8333 48.0745C59.4122 47.2168 60.9011 46.4081 62.21 45.432C64.1059 44.0168 65.5988 42.3035 67.1818 40.488C67.9344 39.6242 68.7137 38.7318 69.5338 37.8823C69.6503 37.7618 69.7792 37.625 69.9203 37.4738C71.5524 35.736 74.5894 32.5013 77.9047 33.4182C78.9436 33.7041 79.7576 34.3331 80.2587 35.2357C81.0706 36.6958 81.0563 38.7767 80.2198 41.5989C79.1481 45.2114 76.5099 48.1827 73.9595 51.056C72.0984 53.1532 70.1719 55.3219 68.9857 57.6357C68.6421 58.3055 67.8199 58.5689 67.1511 58.2258C66.4803 57.8827 66.2165 57.0618 66.5601 56.394C67.9038 53.774 69.9469 51.4746 71.9205 49.2507C74.3829 46.4775 76.7082 43.8595 77.6081 40.827C78.4078 38.1314 78.1194 36.996 77.8781 36.559C77.7799 36.3834 77.6122 36.1649 77.1827 36.0464C75.4566 35.5706 73.0637 38.1171 71.9144 39.3403C71.7651 39.4996 71.628 39.6467 71.5033 39.7733C70.7322 40.5738 70.0103 41.4008 69.2454 42.2769C67.6379 44.1189 65.9772 46.0242 63.8502 47.6129C62.3838 48.7075 60.7354 49.602 59.1422 50.4678C57.3404 51.446 55.6388 52.3711 54.2134 53.5412C49.0881 57.75 50.1189 62.5653 51.3113 68.1423C51.8164 70.5071 52.34 72.9536 52.3522 75.3939C52.3563 76.1454 51.7489 76.758 50.9963 76.7621H50.9881L50.984 76.7601Z" fill="url(#paint3_linear_182_1375)"/>
<path d="M55.0437 37.6638C54.5017 37.6638 53.9577 37.5331 53.4546 37.2696L45.3148 32.9975C45.1164 32.8934 44.8792 32.8934 44.6828 32.9975L36.543 37.2696C35.3875 37.8761 34.0111 37.7781 32.9558 37.0103C31.8984 36.2445 31.379 34.9682 31.5998 33.6837L33.1542 24.633C33.193 24.4125 33.1194 24.1878 32.9578 24.0326L26.3724 17.6224C25.4377 16.7117 25.1064 15.3761 25.5114 14.1366C25.9143 12.897 26.9696 12.0087 28.2621 11.8208L37.3632 10.4995C37.584 10.4669 37.7763 10.328 37.8745 10.1279L41.9443 1.89407C42.5231 0.723941 43.693 -0.00305176 44.9998 -0.00305176C46.3067 -0.00305176 47.4766 0.723941 48.0553 1.89407L52.1252 10.1279C52.2234 10.328 52.4156 10.4669 52.6365 10.4995L61.7376 11.8208C63.0301 12.0087 64.0834 12.8949 64.4883 14.1366C64.8912 15.3761 64.5619 16.7137 63.6273 17.6224L57.0418 24.0326C56.8823 24.1878 56.8087 24.4125 56.8455 24.633L58.3998 33.6837C58.6207 34.9702 58.1012 36.2445 57.0439 37.0103C56.4467 37.4432 55.7472 37.6638 55.0457 37.6638H55.0437ZM44.9998 2.72317C44.873 2.72317 44.5601 2.75993 44.3904 3.10096L40.3205 11.3348C39.8235 12.3395 38.8643 13.0338 37.7558 13.1951L28.6548 14.5164C28.2764 14.5715 28.1455 14.8574 28.1067 14.9779C28.0678 15.0984 28.0065 15.4088 28.2785 15.6743L34.864 22.0845C35.6677 22.8666 36.0338 23.9918 35.8436 25.0945L34.2893 34.1452C34.2238 34.5209 34.457 34.7354 34.5592 34.8089C34.6615 34.8824 34.9376 35.0376 35.275 34.8599L43.4148 30.5878C44.4067 30.0671 45.5929 30.0671 46.5849 30.5878L54.7247 34.8599C55.0621 35.0376 55.3382 34.8824 55.4405 34.8089C55.5427 34.7354 55.7759 34.5209 55.7104 34.1452L54.1561 25.0945C53.9659 23.9898 54.332 22.8646 55.1357 22.0845L61.7212 15.6763C61.9932 15.4108 61.9319 15.1004 61.893 14.9799C61.8541 14.8595 61.7212 14.5736 61.3449 14.5184L52.2439 13.1972C51.1333 13.0359 50.1762 12.3415 49.6792 11.3368L45.6093 3.10301C45.4396 2.76197 45.1266 2.72521 44.9998 2.72521V2.72317Z" fill="url(#paint4_linear_182_1375)"/>
<path d="M68.9959 20.1955H67.8997C67.147 20.1955 66.5355 19.587 66.5355 18.8334C66.5355 18.0799 67.145 17.4713 67.8997 17.4713H68.9959C69.7485 17.4713 70.36 18.0799 70.36 18.8334C70.36 19.587 69.7506 20.1955 68.9959 20.1955Z" fill="url(#paint5_linear_182_1375)"/>
<path d="M64.6376 36.5876C64.2879 36.5876 63.9402 36.4548 63.6743 36.1894L62.0464 34.5638C61.5146 34.0329 61.5146 33.1711 62.0464 32.6381C62.5781 32.1072 63.4412 32.1072 63.975 32.6381L65.6029 34.2636C66.1347 34.7946 66.1347 35.6564 65.6029 36.1894C65.3371 36.4548 64.9873 36.5876 64.6397 36.5876H64.6376Z" fill="url(#paint6_linear_182_1375)"/>
<path d="M61.0095 4.39158C60.6598 4.39158 60.3121 4.25884 60.0462 3.99337C59.5145 3.46242 59.5145 2.60065 60.0462 2.06765L61.7171 0.399245C62.2489 -0.131705 63.1119 -0.131705 63.6457 0.399245C64.1795 0.930195 64.1775 1.79197 63.6457 2.32496L61.9748 3.99337C61.7089 4.25884 61.3592 4.39158 61.0115 4.39158H61.0095Z" fill="url(#paint7_linear_182_1375)"/>
<path d="M22.1 20.1955H21.0038C20.2512 20.1955 19.6397 19.587 19.6397 18.8334C19.6397 18.0799 20.2491 17.4713 21.0038 17.4713H22.1C22.8526 17.4713 23.4641 18.0799 23.4641 18.8334C23.4641 19.587 22.8547 20.1955 22.1 20.1955Z" fill="url(#paint8_linear_182_1375)"/>
<path d="M25.3621 36.5876C25.0123 36.5876 24.6647 36.4548 24.3988 36.1894C23.867 35.6584 23.867 34.7966 24.3988 34.2636L26.0267 32.6381C26.5585 32.1072 27.4216 32.1072 27.9553 32.6381C28.4871 33.1691 28.4871 34.0308 27.9553 34.5638L26.3274 36.1894C26.0615 36.4548 25.7118 36.5876 25.3641 36.5876H25.3621Z" fill="url(#paint9_linear_182_1375)"/>
<path d="M28.9902 4.39158C28.6405 4.39158 28.2928 4.25884 28.0269 3.99337L26.3581 2.32496C25.8263 1.79401 25.8263 0.932237 26.3581 0.399245C26.8898 -0.131705 27.7529 -0.131705 28.2867 0.399245L29.9555 2.06765C30.4873 2.5986 30.4873 3.46038 29.9555 3.99337C29.6897 4.25884 29.3399 4.39158 28.9923 4.39158H28.9902Z" fill="url(#paint10_linear_182_1375)"/>
<defs>
<linearGradient id="paint0_linear_182_1375" x1="21.6127" y1="18.6984" x2="96.0554" y2="29.6645" gradientUnits="userSpaceOnUse">
<stop stop-color="#AC0432"/>
<stop offset="1" stop-color="#EB0444"/>
</linearGradient>
<linearGradient id="paint1_linear_182_1375" x1="21.6127" y1="18.6984" x2="96.0554" y2="29.6645" gradientUnits="userSpaceOnUse">
<stop stop-color="#AC0432"/>
<stop offset="1" stop-color="#EB0444"/>
</linearGradient>
<linearGradient id="paint2_linear_182_1375" x1="21.6127" y1="18.6984" x2="96.0554" y2="29.6645" gradientUnits="userSpaceOnUse">
<stop stop-color="#AC0432"/>
<stop offset="1" stop-color="#EB0444"/>
</linearGradient>
<linearGradient id="paint3_linear_182_1375" x1="21.6127" y1="18.6984" x2="96.0554" y2="29.6645" gradientUnits="userSpaceOnUse">
<stop stop-color="#AC0432"/>
<stop offset="1" stop-color="#EB0444"/>
</linearGradient>
<linearGradient id="paint4_linear_182_1375" x1="21.6127" y1="18.6984" x2="96.0554" y2="29.6645" gradientUnits="userSpaceOnUse">
<stop stop-color="#AC0432"/>
<stop offset="1" stop-color="#EB0444"/>
</linearGradient>
<linearGradient id="paint5_linear_182_1375" x1="21.6127" y1="18.6984" x2="96.0554" y2="29.6645" gradientUnits="userSpaceOnUse">
<stop stop-color="#AC0432"/>
<stop offset="1" stop-color="#EB0444"/>
</linearGradient>
<linearGradient id="paint6_linear_182_1375" x1="21.6127" y1="18.6984" x2="96.0554" y2="29.6645" gradientUnits="userSpaceOnUse">
<stop stop-color="#AC0432"/>
<stop offset="1" stop-color="#EB0444"/>
</linearGradient>
<linearGradient id="paint7_linear_182_1375" x1="21.6127" y1="18.6984" x2="96.0554" y2="29.6645" gradientUnits="userSpaceOnUse">
<stop stop-color="#AC0432"/>
<stop offset="1" stop-color="#EB0444"/>
</linearGradient>
<linearGradient id="paint8_linear_182_1375" x1="21.6127" y1="18.6984" x2="96.0554" y2="29.6645" gradientUnits="userSpaceOnUse">
<stop stop-color="#AC0432"/>
<stop offset="1" stop-color="#EB0444"/>
</linearGradient>
<linearGradient id="paint9_linear_182_1375" x1="21.6127" y1="18.6984" x2="96.0554" y2="29.6645" gradientUnits="userSpaceOnUse">
<stop stop-color="#AC0432"/>
<stop offset="1" stop-color="#EB0444"/>
</linearGradient>
<linearGradient id="paint10_linear_182_1375" x1="21.6127" y1="18.6984" x2="96.0554" y2="29.6645" gradientUnits="userSpaceOnUse">
<stop stop-color="#AC0432"/>
<stop offset="1" stop-color="#EB0444"/>
</linearGradient>
</defs>
</svg>
