<svg width="83" height="67" viewBox="0 0 83 67" fill="none" xmlns="http://www.w3.org/2000/svg">
<path d="M45.5789 52.345H7.81886C5.02886 52.345 2.74886 50.075 2.74886 47.275V14.835H69.9389V30.595C69.9389 31.285 70.4989 31.845 71.1889 31.845C71.8789 31.845 72.4389 31.285 72.4389 30.595V7.63501C72.4389 3.46501 69.0489 0.0750122 64.8689 0.0750122H7.81886C3.63886 0.0750122 0.248856 3.46501 0.248856 7.63501V47.275C0.248856 51.445 3.63886 54.845 7.81886 54.845H45.5789C46.2689 54.845 46.8289 54.285 46.8289 53.595C46.8289 52.905 46.2689 52.345 45.5789 52.345ZM7.81886 2.57501H64.8789C67.6689 2.57501 69.9489 4.84501 69.9489 7.63501V12.325H2.74886V7.63501C2.74886 4.84501 5.01886 2.57501 7.81886 2.57501Z" fill="url(#paint0_linear_182_1362)"/>
<path d="M8.30886 9.83501H9.75886C10.4489 9.83501 11.0089 9.27501 11.0089 8.58501C11.0089 7.89501 10.4489 7.33501 9.75886 7.33501H8.30886C7.61886 7.33501 7.05886 7.89501 7.05886 8.58501C7.05886 9.27501 7.61886 9.83501 8.30886 9.83501Z" fill="url(#paint1_linear_182_1362)"/>
<path d="M13.5289 9.83501H14.9789C15.6689 9.83501 16.2289 9.27501 16.2289 8.58501C16.2289 7.89501 15.6689 7.33501 14.9789 7.33501H13.5289C12.8389 7.33501 12.2789 7.89501 12.2789 8.58501C12.2789 9.27501 12.8389 9.83501 13.5289 9.83501Z" fill="url(#paint2_linear_182_1362)"/>
<path d="M18.7589 9.83501H20.2089C20.8989 9.83501 21.4589 9.27501 21.4589 8.58501C21.4589 7.89501 20.8989 7.33501 20.2089 7.33501H18.7589C18.0689 7.33501 17.5089 7.89501 17.5089 8.58501C17.5089 9.27501 18.0689 9.83501 18.7589 9.83501Z" fill="url(#paint3_linear_182_1362)"/>
<path d="M29.6689 19.615C29.6689 18.925 29.1089 18.365 28.4189 18.365H9.25886C8.56886 18.365 8.00886 18.925 8.00886 19.615V32.395C8.00886 33.085 8.56886 33.645 9.25886 33.645H28.4189C29.1089 33.645 29.6689 33.085 29.6689 32.395V19.615ZM27.1689 31.145H10.5089V20.865H27.1689V31.145Z" fill="url(#paint4_linear_182_1362)"/>
<path d="M28.2889 36.875H15.3889C14.6989 36.875 14.1389 37.435 14.1389 38.125C14.1389 38.815 14.6989 39.375 15.3889 39.375H28.2889C28.9789 39.375 29.5389 38.815 29.5389 38.125C29.5389 37.435 28.9789 36.875 28.2889 36.875Z" fill="url(#paint5_linear_182_1362)"/>
<path d="M29.5389 42.475C29.5389 41.785 28.9789 41.225 28.2889 41.225H15.3889C14.6989 41.225 14.1389 41.785 14.1389 42.475C14.1389 43.165 14.6989 43.725 15.3889 43.725H28.2889C28.9789 43.725 29.5389 43.165 29.5389 42.475Z" fill="url(#paint6_linear_182_1362)"/>
<path d="M10.8689 36.875H9.39886C8.70886 36.875 8.14886 37.435 8.14886 38.125C8.14886 38.815 8.70886 39.375 9.39886 39.375H10.8689C11.5589 39.375 12.1189 38.815 12.1189 38.125C12.1189 37.435 11.5589 36.875 10.8689 36.875Z" fill="url(#paint7_linear_182_1362)"/>
<path d="M10.8689 41.225H9.39886C8.70886 41.225 8.14886 41.785 8.14886 42.475C8.14886 43.165 8.70886 43.725 9.39886 43.725H10.8689C11.5589 43.725 12.1189 43.165 12.1189 42.475C12.1189 41.785 11.5589 41.225 10.8689 41.225Z" fill="url(#paint8_linear_182_1362)"/>
<path d="M15.3889 45.585C14.6989 45.585 14.1389 46.145 14.1389 46.835C14.1389 47.525 14.6989 48.085 15.3889 48.085H24.8089C25.4989 48.085 26.0589 47.525 26.0589 46.835C26.0589 46.145 25.4989 45.585 24.8089 45.585H15.3889Z" fill="url(#paint9_linear_182_1362)"/>
<path d="M10.8689 45.585H9.39886C8.70886 45.585 8.14886 46.145 8.14886 46.835C8.14886 47.525 8.70886 48.085 9.39886 48.085H10.8689C11.5589 48.085 12.1189 47.525 12.1189 46.835C12.1189 46.145 11.5589 45.585 10.8689 45.585Z" fill="url(#paint10_linear_182_1362)"/>
<path d="M63.2389 18.475H34.6589C33.9689 18.475 33.4089 19.035 33.4089 19.725C33.4089 20.415 33.9689 20.975 34.6589 20.975H63.2389C63.9289 20.975 64.4889 20.415 64.4889 19.725C64.4889 19.035 63.9289 18.475 63.2389 18.475Z" fill="url(#paint11_linear_182_1362)"/>
<path d="M64.4889 24.075C64.4889 23.385 63.9289 22.825 63.2389 22.825H34.6589C33.9689 22.825 33.4089 23.385 33.4089 24.075C33.4089 24.765 33.9689 25.325 34.6589 25.325H63.2389C63.9289 25.325 64.4889 24.765 64.4889 24.075Z" fill="url(#paint12_linear_182_1362)"/>
<path d="M52.2989 28.435C52.2989 27.745 51.7389 27.185 51.0489 27.185H34.6589C33.9689 27.185 33.4089 27.745 33.4089 28.435C33.4089 29.125 33.9689 29.685 34.6589 29.685H51.0489C51.7389 29.685 52.2989 29.125 52.2989 28.435Z" fill="url(#paint13_linear_182_1362)"/>
<path d="M36.1289 36.875H34.6589C33.9689 36.875 33.4089 37.435 33.4089 38.125C33.4089 38.815 33.9689 39.375 34.6589 39.375H36.1289C36.8189 39.375 37.3789 38.815 37.3789 38.125C37.3789 37.435 36.8189 36.875 36.1289 36.875Z" fill="url(#paint14_linear_182_1362)"/>
<path d="M36.1289 41.225H34.6589C33.9689 41.225 33.4089 41.785 33.4089 42.475C33.4089 43.165 33.9689 43.725 34.6589 43.725H36.1289C36.8189 43.725 37.3789 43.165 37.3789 42.475C37.3789 41.785 36.8189 41.225 36.1289 41.225Z" fill="url(#paint15_linear_182_1362)"/>
<path d="M36.1289 45.585H34.6589C33.9689 45.585 33.4089 46.145 33.4089 46.835C33.4089 47.525 33.9689 48.085 34.6589 48.085H36.1289C36.8189 48.085 37.3789 47.525 37.3789 46.835C37.3789 46.145 36.8189 45.585 36.1289 45.585Z" fill="url(#paint16_linear_182_1362)"/>
<path d="M41.3589 36.875H39.8889C39.1989 36.875 38.6389 37.435 38.6389 38.125C38.6389 38.815 39.1989 39.375 39.8889 39.375H41.3589C42.0489 39.375 42.6089 38.815 42.6089 38.125C42.6089 37.435 42.0489 36.875 41.3589 36.875Z" fill="url(#paint17_linear_182_1362)"/>
<path d="M41.3589 45.585H39.8889C39.1989 45.585 38.6389 46.145 38.6389 46.835C38.6389 47.525 39.1989 48.085 39.8889 48.085H41.3589C42.0489 48.085 42.6089 47.525 42.6089 46.835C42.6089 46.145 42.0489 45.585 41.3589 45.585Z" fill="url(#paint18_linear_182_1362)"/>
<path d="M41.3589 41.225H39.8889C39.1989 41.225 38.6389 41.785 38.6389 42.475C38.6389 43.165 39.1989 43.725 39.8889 43.725H41.3589C42.0489 43.725 42.6089 43.165 42.6089 42.475C42.6089 41.785 42.0489 41.225 41.3589 41.225Z" fill="url(#paint19_linear_182_1362)"/>
<path d="M81.4889 59.865L78.2989 56.675C76.9189 55.295 75.0989 54.425 73.1689 54.215L73.0289 54.195C72.6489 54.155 72.2789 54.195 71.9189 54.305L71.4689 53.855C75.8389 48.585 75.5689 40.725 70.6289 35.795C65.3889 30.555 56.8689 30.555 51.6389 35.795C46.3989 41.035 46.3989 49.555 51.6389 54.785C54.2589 57.405 57.6989 58.715 61.1389 58.715C64.1889 58.715 67.2289 57.685 69.7089 55.625L70.1389 56.055C70.0189 56.405 69.9689 56.775 69.9989 57.155L70.0389 57.625C70.1789 59.285 70.9089 60.845 72.0789 62.015L75.7889 65.725C76.5589 66.495 77.5989 66.925 78.6889 66.925C78.7489 66.925 78.8189 66.925 78.8789 66.925C80.0289 66.875 81.1089 66.325 81.8489 65.435C83.1789 63.835 83.0189 61.375 81.4989 59.855L81.4889 59.865ZM53.3989 53.025C49.1389 48.765 49.1389 41.825 53.3989 37.565C55.5289 35.435 58.3289 34.365 61.1289 34.365C63.9289 34.365 66.7289 35.435 68.8589 37.565C73.1189 41.825 73.1189 48.765 68.8589 53.025C64.5989 57.285 57.6589 57.285 53.3989 53.025ZM79.9089 63.855C79.6189 64.205 79.2089 64.415 78.7489 64.435C78.2889 64.455 77.8689 64.295 77.5489 63.975L73.8389 60.265C73.0788 59.505 72.6088 58.495 72.5189 57.425L72.4789 56.955C72.4789 56.855 72.5189 56.795 72.5489 56.755C72.5789 56.725 72.6389 56.685 72.7189 56.685C72.7189 56.685 72.7389 56.685 72.7489 56.685L72.8889 56.705C74.2589 56.855 75.5489 57.475 76.5289 58.445L79.7189 61.635C80.3389 62.255 80.4289 63.235 79.9089 63.855Z" fill="url(#paint20_linear_182_1362)"/>
<path d="M56.9289 37.245C56.3189 37.565 56.0789 38.315 56.3989 38.935C56.7189 39.545 57.4789 39.785 58.0889 39.465C60.6489 38.135 63.7389 38.605 65.7889 40.645C66.0289 40.885 66.3489 41.015 66.6689 41.015C66.9889 41.015 67.3089 40.895 67.5489 40.645C68.0389 40.155 68.0389 39.365 67.5489 38.875C64.7289 36.055 60.4589 35.405 56.9289 37.245Z" fill="url(#paint21_linear_182_1362)"/>
<defs>
<linearGradient id="paint0_linear_182_1362" x1="20.0612" y1="16.31" x2="88.1354" y2="26.899" gradientUnits="userSpaceOnUse">
<stop stop-color="#AC0432"/>
<stop offset="1" stop-color="#EB0444"/>
</linearGradient>
<linearGradient id="paint1_linear_182_1362" x1="20.0612" y1="16.31" x2="88.1354" y2="26.899" gradientUnits="userSpaceOnUse">
<stop stop-color="#AC0432"/>
<stop offset="1" stop-color="#EB0444"/>
</linearGradient>
<linearGradient id="paint2_linear_182_1362" x1="20.0612" y1="16.31" x2="88.1354" y2="26.899" gradientUnits="userSpaceOnUse">
<stop stop-color="#AC0432"/>
<stop offset="1" stop-color="#EB0444"/>
</linearGradient>
<linearGradient id="paint3_linear_182_1362" x1="20.0612" y1="16.31" x2="88.1354" y2="26.899" gradientUnits="userSpaceOnUse">
<stop stop-color="#AC0432"/>
<stop offset="1" stop-color="#EB0444"/>
</linearGradient>
<linearGradient id="paint4_linear_182_1362" x1="20.0612" y1="16.31" x2="88.1354" y2="26.899" gradientUnits="userSpaceOnUse">
<stop stop-color="#AC0432"/>
<stop offset="1" stop-color="#EB0444"/>
</linearGradient>
<linearGradient id="paint5_linear_182_1362" x1="20.0612" y1="16.31" x2="88.1354" y2="26.899" gradientUnits="userSpaceOnUse">
<stop stop-color="#AC0432"/>
<stop offset="1" stop-color="#EB0444"/>
</linearGradient>
<linearGradient id="paint6_linear_182_1362" x1="20.0612" y1="16.31" x2="88.1354" y2="26.899" gradientUnits="userSpaceOnUse">
<stop stop-color="#AC0432"/>
<stop offset="1" stop-color="#EB0444"/>
</linearGradient>
<linearGradient id="paint7_linear_182_1362" x1="20.0612" y1="16.31" x2="88.1354" y2="26.899" gradientUnits="userSpaceOnUse">
<stop stop-color="#AC0432"/>
<stop offset="1" stop-color="#EB0444"/>
</linearGradient>
<linearGradient id="paint8_linear_182_1362" x1="20.0612" y1="16.31" x2="88.1354" y2="26.899" gradientUnits="userSpaceOnUse">
<stop stop-color="#AC0432"/>
<stop offset="1" stop-color="#EB0444"/>
</linearGradient>
<linearGradient id="paint9_linear_182_1362" x1="20.0612" y1="16.31" x2="88.1354" y2="26.899" gradientUnits="userSpaceOnUse">
<stop stop-color="#AC0432"/>
<stop offset="1" stop-color="#EB0444"/>
</linearGradient>
<linearGradient id="paint10_linear_182_1362" x1="20.0612" y1="16.31" x2="88.1354" y2="26.899" gradientUnits="userSpaceOnUse">
<stop stop-color="#AC0432"/>
<stop offset="1" stop-color="#EB0444"/>
</linearGradient>
<linearGradient id="paint11_linear_182_1362" x1="20.0612" y1="16.31" x2="88.1354" y2="26.899" gradientUnits="userSpaceOnUse">
<stop stop-color="#AC0432"/>
<stop offset="1" stop-color="#EB0444"/>
</linearGradient>
<linearGradient id="paint12_linear_182_1362" x1="20.0612" y1="16.31" x2="88.1354" y2="26.899" gradientUnits="userSpaceOnUse">
<stop stop-color="#AC0432"/>
<stop offset="1" stop-color="#EB0444"/>
</linearGradient>
<linearGradient id="paint13_linear_182_1362" x1="20.0612" y1="16.31" x2="88.1354" y2="26.899" gradientUnits="userSpaceOnUse">
<stop stop-color="#AC0432"/>
<stop offset="1" stop-color="#EB0444"/>
</linearGradient>
<linearGradient id="paint14_linear_182_1362" x1="20.0612" y1="16.31" x2="88.1354" y2="26.899" gradientUnits="userSpaceOnUse">
<stop stop-color="#AC0432"/>
<stop offset="1" stop-color="#EB0444"/>
</linearGradient>
<linearGradient id="paint15_linear_182_1362" x1="20.0612" y1="16.31" x2="88.1354" y2="26.899" gradientUnits="userSpaceOnUse">
<stop stop-color="#AC0432"/>
<stop offset="1" stop-color="#EB0444"/>
</linearGradient>
<linearGradient id="paint16_linear_182_1362" x1="20.0612" y1="16.31" x2="88.1354" y2="26.899" gradientUnits="userSpaceOnUse">
<stop stop-color="#AC0432"/>
<stop offset="1" stop-color="#EB0444"/>
</linearGradient>
<linearGradient id="paint17_linear_182_1362" x1="20.0612" y1="16.31" x2="88.1354" y2="26.899" gradientUnits="userSpaceOnUse">
<stop stop-color="#AC0432"/>
<stop offset="1" stop-color="#EB0444"/>
</linearGradient>
<linearGradient id="paint18_linear_182_1362" x1="20.0612" y1="16.31" x2="88.1354" y2="26.899" gradientUnits="userSpaceOnUse">
<stop stop-color="#AC0432"/>
<stop offset="1" stop-color="#EB0444"/>
</linearGradient>
<linearGradient id="paint19_linear_182_1362" x1="20.0612" y1="16.31" x2="88.1354" y2="26.899" gradientUnits="userSpaceOnUse">
<stop stop-color="#AC0432"/>
<stop offset="1" stop-color="#EB0444"/>
</linearGradient>
<linearGradient id="paint20_linear_182_1362" x1="20.0612" y1="16.31" x2="88.1354" y2="26.899" gradientUnits="userSpaceOnUse">
<stop stop-color="#AC0432"/>
<stop offset="1" stop-color="#EB0444"/>
</linearGradient>
<linearGradient id="paint21_linear_182_1362" x1="20.0612" y1="16.31" x2="88.1354" y2="26.899" gradientUnits="userSpaceOnUse">
<stop stop-color="#AC0432"/>
<stop offset="1" stop-color="#EB0444"/>
</linearGradient>
</defs>
</svg>
