<svg width="41" height="34" viewBox="0 0 41 34" fill="none" xmlns="http://www.w3.org/2000/svg">
<path d="M40.361 30.1896L37.4805 27.326C37.2978 27.1443 36.9992 27.1443 36.8164 27.326C36.6336 27.5077 36.6336 27.8046 36.8164 27.9863L38.9684 30.1256H31.3438V5.91201C31.3438 5.65355 31.1327 5.44627 30.8753 5.44627H25.238C24.978 5.44627 24.7695 5.65611 24.7695 5.91201V30.1256H23.122V14.8866C23.122 14.6281 22.911 14.4208 22.651 14.4208H17.0136C16.7537 14.4208 16.5451 14.6307 16.5451 14.8866V30.1256H14.8977V19.9867C14.8977 19.7283 14.6866 19.5184 14.4292 19.5184H8.79188C8.53189 19.5184 8.32338 19.7283 8.32338 19.9867V30.1256H4.39527V1.66657L6.54466 3.80337C6.63733 3.89549 6.75574 3.939 6.87672 3.939C6.99771 3.939 7.11612 3.89293 7.20879 3.80337C7.39155 3.62168 7.39155 3.32483 7.20879 3.14314L4.18162 0.136269C3.99885 -0.0454229 3.70025 -0.0454229 3.51749 0.136269L0.637042 2.99983C0.454279 3.18152 0.454279 3.47837 0.637042 3.66006C0.819805 3.84175 1.1184 3.84175 1.30117 3.66006L3.45314 1.52327V30.5965C3.45314 30.8549 3.66422 31.0622 3.92163 31.0622H38.8216L36.6697 33.2016C36.4869 33.3833 36.4869 33.6801 36.6697 33.8618C36.7623 33.9539 36.8807 34 37.0017 34C37.1227 34 37.2411 33.9539 37.3338 33.8618L40.1808 31.0341C40.3635 30.9701 40.5 30.8012 40.5 30.5965C40.5 30.5837 40.4948 30.5735 40.4922 30.5607C40.5025 30.4276 40.4639 30.2945 40.361 30.1922M30.4042 30.1282H25.7065V6.38288H30.4042V30.1282ZM22.1799 30.1282H17.4821V15.3574H22.1799V30.1282ZM13.9556 30.1282H9.25779V20.455H13.9556V30.1282Z" fill="#F1F3F3"/>
</svg>
